<svg width="696" height="639" viewBox="0 0 696 639" fill="none" xmlns="http://www.w3.org/2000/svg">
<rect width="696" height="639" rx="227" fill="#38789D"/>
<path d="M488.474 23.0472L454.076 40.2991C452.816 40.8346 451.742 41.729 450.987 42.8708C450.232 44.0126 449.83 45.3513 449.83 46.7201V62.8078C449.799 77.433 454.064 91.7452 462.096 103.968C468.293 113.376 476.514 125.477 490.191 132.38H496.353C511.582 127.676 522.942 115.363 529.881 104.779C537.911 92.556 542.176 78.2442 542.146 63.6192V46.7201C542.146 45.353 541.745 44.0159 540.993 42.8745C540.24 41.7332 539.169 40.8377 537.913 40.2991L498.728 23.5999C496.976 22.8591 490.214 22.3063 488.474 23.0472Z" fill="#E0E0E0"/>
<path d="M487.086 23.5999L447.902 40.2991C446.642 40.8346 445.568 41.729 444.813 42.8708C444.058 44.0126 443.656 45.3513 443.656 46.7201V62.8078C443.657 77.7121 448.079 92.2812 456.362 104.672C464.646 117.062 476.418 126.717 490.191 132.415C505.408 127.711 516.768 115.398 523.718 104.814C531.75 92.5789 536.015 78.2554 535.984 63.6192V46.7201C535.985 45.3513 535.582 44.0126 534.827 42.8708C534.073 41.729 532.998 40.8346 531.739 40.2991L492.554 23.5999C491.689 23.2361 490.759 23.0486 489.82 23.0486C488.881 23.0486 487.952 23.2361 487.086 23.5999Z" fill="#F5F5F5"/>
<path d="M535.855 59.2562C535.908 59.4995 535.931 59.7482 535.925 59.9971C535.925 60.5498 535.984 61.2554 536.019 62.1257C536.055 62.9959 536.113 64.1837 536.019 65.5008C535.925 66.8179 536.019 68.3232 535.808 69.9696C535.596 71.616 535.537 73.4976 535.196 75.3674C535.043 76.3317 534.926 77.3313 534.726 78.3545C534.526 79.3776 534.279 80.4125 534.055 81.4826C532.971 86.1257 531.455 90.6573 529.528 95.0184C527.547 99.358 525.186 103.514 522.472 107.437C521.166 109.201 519.955 110.965 518.661 112.364C518.026 113.105 517.486 113.858 516.839 114.516L515.051 116.41C513.934 117.586 512.793 118.621 511.841 119.538C510.888 120.455 510.018 121.173 509.301 121.749L507.76 123.09C507.577 123.257 507.376 123.403 507.16 123.525C507.317 123.329 507.494 123.152 507.689 122.995L509.277 121.572C509.971 120.973 510.818 120.22 511.735 119.22C512.652 118.221 513.781 117.304 514.863 116.057L516.615 114.14C517.215 113.482 517.791 112.729 518.403 111.988C519.673 110.518 520.849 108.813 522.131 107.049C524.793 103.144 527.115 99.0163 529.069 94.7126C530.975 90.3835 532.49 85.893 533.597 81.2945L534.291 78.1898C534.502 77.1785 534.632 76.1789 534.796 75.2263C535.149 73.3212 535.29 71.5219 535.467 69.8755C535.643 68.2291 535.666 66.7473 535.761 65.4302C535.855 64.1131 535.843 62.9959 535.843 62.0669C535.843 61.1378 535.843 60.491 535.843 59.9383C535.823 59.7111 535.827 59.4826 535.855 59.2562Z" fill="#E0E0E0"/>
<path d="M486.898 94.2305L464.424 76.3671L470.657 68.5231L485.734 80.5066L507.748 55.8694L515.216 62.5491L486.898 94.2305Z" fill="white"/>
<path d="M593.067 111.083H588.81V87.9271C588.81 85.3072 587.769 82.7946 585.917 80.942C584.064 79.0895 581.551 78.0487 578.931 78.0487C576.312 78.0487 573.799 79.0895 571.946 80.942C570.094 82.7946 569.053 85.3072 569.053 87.9271V111.083H564.796V87.9271C564.796 84.1844 566.283 80.5949 568.929 77.9484C571.576 75.3019 575.165 73.8151 578.908 73.8151C582.651 73.8151 586.24 75.3019 588.887 77.9484C591.533 80.5949 593.02 84.1844 593.02 87.9271L593.067 111.083Z" fill="#EBEBEB"/>
<path d="M594.349 95.3712H563.502C561.502 95.3712 559.88 96.9929 559.88 98.9933V121.608C559.88 123.608 561.502 125.23 563.502 125.23H594.349C596.349 125.23 597.971 123.608 597.971 121.608V98.9933C597.971 96.9929 596.349 95.3712 594.349 95.3712Z" fill="#EBEBEB"/>
<path d="M581.848 111.071C582.227 110.686 582.525 110.231 582.727 109.73C582.929 109.23 583.03 108.694 583.024 108.154C583.03 107.372 582.816 106.603 582.409 105.936C582.001 105.268 581.414 104.727 580.716 104.375C580.017 104.023 579.234 103.873 578.454 103.942C577.675 104.012 576.93 104.297 576.304 104.767C575.679 105.237 575.197 105.873 574.913 106.602C574.629 107.331 574.555 108.125 574.699 108.894C574.842 109.664 575.198 110.377 575.726 110.955C576.253 111.533 576.932 111.952 577.685 112.165L576.791 116.139H580.778L579.978 112.165C580.674 111.966 581.307 111.589 581.813 111.071" fill="#FAFAFA"/>
<path d="M109.602 449.041C105.034 446.183 99.873 444.409 94.5136 443.855C92.044 443.597 89.351 443.667 87.3753 445.161C87.1459 445.292 86.9561 445.482 86.8257 445.712C86.6953 445.941 86.6293 446.202 86.6344 446.466C86.7549 446.839 87.0053 447.156 87.34 447.36C90.5437 449.646 94.3119 451.011 98.2362 451.307C102.16 451.604 106.091 450.82 109.602 449.041Z" fill="#E0E0E0"/>
<path d="M109.214 448.618C105.72 446.05 102.458 443.181 99.4646 440.045C96.4648 436.885 94.3585 432.985 93.3612 428.744C93.1626 428.115 93.1028 427.451 93.186 426.797C93.2693 426.143 93.4936 425.516 93.8433 424.957C101.605 431.025 107.708 438.881 109.214 448.618Z" fill="#E0E0E0"/>
<path d="M109.519 448.983C108.804 444.738 108.867 440.398 109.708 436.176C110.571 431.92 113.001 428.142 116.517 425.592C117.857 428.732 117.281 432.354 116.34 435.623C114.878 440.704 112.594 445.511 109.578 449.853" fill="#E0E0E0"/>
<path d="M117.14 462.636C112.569 463.375 108.34 465.516 105.039 468.763C101.566 471.918 99.1483 476.065 98.1122 480.641C102.652 480.358 106.497 477.113 109.284 473.585C112.071 470.057 113.988 466.07 117.081 462.718" fill="#E0E0E0"/>
<path d="M118.798 464.812C116.977 460.192 116.339 455.191 116.941 450.263C117.542 445.334 119.365 440.633 122.244 436.588C124.878 445.996 123.902 456.58 118.798 464.812Z" fill="#E0E0E0"/>
<path d="M128.853 476.795C124.627 476.539 120.418 477.529 116.749 479.642C113.08 481.756 110.113 484.9 108.214 488.684C107.967 489.19 107.732 489.86 108.085 490.295C108.262 490.469 108.479 490.597 108.717 490.667C108.955 490.736 109.206 490.746 109.449 490.695C113.518 490.437 117.116 487.991 120.092 485.203C123.067 482.416 125.666 479.194 128.947 476.783" fill="#E0E0E0"/>
<path d="M128.535 476.16C126.368 469.184 126.234 461.736 128.147 454.686C128.912 451.923 130.182 449.018 132.734 447.724C132.836 447.655 132.951 447.608 133.073 447.586C133.194 447.563 133.319 447.567 133.439 447.595C133.646 447.705 133.802 447.89 133.874 448.112C134.737 450.042 135.109 452.155 134.956 454.263C134.805 456.367 134.483 458.456 133.992 460.507C133.192 464.318 132.816 468.41 130.664 471.703C130.173 472.495 129.729 473.316 129.335 474.161C128.947 474.996 128.947 475.337 128.582 475.948" fill="#E0E0E0"/>
<path d="M155.172 480.111C154.276 476.192 154.247 472.124 155.086 468.191C155.925 464.259 157.612 460.557 160.029 457.344C160.37 456.885 160.828 456.403 161.404 456.45C162.275 456.533 162.498 457.697 162.463 458.567C162.102 466.287 159.575 473.749 155.172 480.1" fill="#E0E0E0"/>
<path d="M157.571 481.758C162.231 482.858 167.074 482.933 171.766 481.979C176.458 481.024 180.888 479.063 184.748 476.231C180.201 473.944 175.001 473.308 170.036 474.431C165.121 475.607 160.628 477.748 157.571 481.758Z" fill="#E0E0E0"/>
<path d="M159.593 476.76C164.709 468.434 174.505 463.001 184.289 462.495C183.113 466.47 179.903 469.551 176.222 471.421C172.449 473.113 168.46 474.277 164.368 474.878C162.792 475.184 160.628 475.525 159.664 476.76" fill="#E0E0E0"/>
<path d="M155.677 452.499C157.229 447.808 158.285 442.968 158.829 438.058C159.376 433.116 158.373 428.127 155.96 423.781C151.185 433.013 150.703 443.773 155.536 453.005" fill="#E0E0E0"/>
<path d="M171.742 444.408C177.328 434.271 188.711 426.168 200.224 425.027C195.779 436.094 183.666 444.643 171.742 444.408Z" fill="#E0E0E0"/>
<path d="M168.237 446.372C176.551 447.642 183.643 452.957 191.416 456.18C193.049 456.961 194.856 457.305 196.661 457.179C197.5 457.168 198.315 456.901 198.997 456.413C199.679 455.924 200.195 455.239 200.476 454.448C200.756 453.658 200.788 452.8 200.566 451.991C200.345 451.182 199.881 450.461 199.236 449.923C198.136 448.893 196.841 448.093 195.426 447.571C186.959 444.043 177.869 443.961 168.954 446.101" fill="#E0E0E0"/>
<path d="M163.415 452.205C165.297 452.746 165.944 453.722 167.437 454.992C172.539 459.327 178.578 462.418 185.077 464.024C185.748 464.188 186.63 464.259 186.971 463.659C187.312 463.059 186.888 462.483 186.512 462.013C183.697 458.701 180.041 456.21 175.928 454.804C171.871 453.287 168.355 451.464 163.51 451.864" fill="#E0E0E0"/>
<path d="M157.982 416.96C161.395 420.107 165.429 422.504 169.824 423.999C174.219 425.493 178.878 426.052 183.502 425.639C183.931 425.653 184.35 425.506 184.678 425.227C185.324 424.522 184.548 423.44 183.807 422.875C176.304 416.995 167.214 414.643 158.006 416.995" fill="#E0E0E0"/>
<path d="M164.427 414.596C168.944 411.274 174.182 409.068 179.715 408.156C185.247 407.245 190.917 407.654 196.261 409.351C192.094 413.209 186.751 415.554 181.091 416.008C175.496 416.522 169.855 416.044 164.427 414.596Z" fill="#E0E0E0"/>
<path d="M161.863 398.403C161.134 390.912 161.604 385.008 161.087 377.482C161.087 376.882 160.922 376.165 160.358 375.941C159.57 375.647 158.923 376.6 158.664 377.4C157.573 380.886 157.293 384.576 157.845 388.188C158.397 391.799 159.768 395.237 161.851 398.238" fill="#E0E0E0"/>
<path d="M161.322 399.226C166.234 396.076 170.468 391.978 173.776 387.172C176.222 383.82 178.292 379.81 177.739 375.694C176.014 375.74 174.319 376.161 172.774 376.929C171.228 377.697 169.868 378.792 168.79 380.14C166.654 382.851 165.101 385.973 164.227 389.312C163.239 392.605 162.545 395.992 161.369 399.226" fill="#E0E0E0"/>
<path d="M173.517 395.839C184.701 391.713 195.056 385.619 204.093 377.846C200.448 376.376 196.273 377.258 192.627 378.728C184.351 381.863 177.513 387.927 173.411 395.769" fill="#E0E0E0"/>
<path d="M164.756 403.33C170.375 404.128 176.076 404.156 181.702 403.413C187.194 402.495 192.392 400.308 197.519 398.156C197.968 398.022 198.353 397.729 198.601 397.333C198.679 397.094 198.683 396.838 198.614 396.597C198.545 396.356 198.405 396.141 198.213 395.98C197.816 395.669 197.354 395.452 196.861 395.345C191.275 393.793 185.254 394.522 179.762 396.368C174.531 398.16 169.502 400.493 164.756 403.33Z" fill="#E0E0E0"/>
<path d="M132.616 417.219C128.771 409.457 129.088 400.402 132.346 392.405C134.698 395.933 134.968 400.496 134.545 404.742C134.121 408.987 132.828 413.338 132.734 417.595" fill="#E0E0E0"/>
<path d="M117.222 409.469C112.41 409.405 107.638 410.347 103.211 412.234C98.784 414.121 94.8002 416.913 91.5148 420.429C96.3748 421.013 101.297 420.102 105.627 417.819C109.913 415.543 113.956 412.836 117.693 409.739" fill="#E0E0E0"/>
<path d="M106.897 406.012C102.193 405.635 97.6888 405.059 93.173 406.435C90.8945 407.076 88.7812 408.202 86.977 409.734C85.1728 411.266 83.7203 413.169 82.7183 415.314C87.1474 415.669 91.5906 414.828 95.5838 412.879C99.5533 410.934 103.34 408.636 106.897 406.012Z" fill="#E0E0E0"/>
<path d="M122.185 406.176C117.963 403.413 113.624 400.59 108.708 399.438C103.792 398.285 98.1239 399.144 94.6664 402.848C98.6413 405.2 103.475 405.459 108.096 405.459C112.718 405.459 118.363 405.4 122.714 406.941" fill="#E0E0E0"/>
<path d="M122.208 406.4C114.988 399.344 112.259 386.572 115.152 376.882C120.85 385.608 123.344 396.04 122.208 406.4Z" fill="#E0E0E0"/>
<path d="M142.024 386.314C143.388 383.138 144.376 379.822 145.552 376.6C146.665 373.33 148.376 370.296 150.597 367.651C152.847 364.969 156.061 363.279 159.546 362.947C158.433 367.831 156.315 372.431 153.327 376.452C150.338 380.473 146.545 383.827 142.189 386.302" fill="#E0E0E0"/>
<path d="M138.496 390.5C136.25 387.396 133.639 383.186 130.582 380.869C127.524 378.552 123.526 377.153 119.821 378.035C121.753 381.419 124.446 384.308 127.687 386.471C130.929 388.635 134.629 390.014 138.496 390.5Z" fill="#E0E0E0"/>
<path d="M139.19 386.572C137.589 382.87 136.406 379 135.662 375.036C134.923 371.024 135.561 366.88 137.473 363.276C141.436 370.767 142.718 378.811 139.437 386.631" fill="#E0E0E0"/>
<path d="M142.106 363.264C144.352 355.843 151.15 350.328 158.5 347.858C159.407 347.486 160.393 347.34 161.369 347.435C161.857 347.485 162.319 347.68 162.696 347.994C163.074 348.309 163.348 348.728 163.486 349.199C163.756 350.457 162.71 351.551 161.722 352.433C155.985 357.335 149.311 361.02 142.106 363.264Z" fill="#E0E0E0"/>
<path d="M142.189 357.231C142.471 352.433 142.765 347.576 144.329 343.037C145.893 338.497 148.892 334.252 153.255 332.265C153.996 337.098 151.867 341.908 149.292 346.071C146.716 350.234 143.612 354.162 142.071 358.807" fill="#E0E0E0"/>
<path d="M142.024 360.524C140.166 355.114 139.978 348.235 136.732 343.519C134.462 340.226 130.852 337.98 128.888 334.487C127.709 337.836 127.873 341.512 129.347 344.742C130.821 347.937 132.852 350.843 135.344 353.327C137.696 355.89 139.79 357.819 142.024 360.524Z" fill="#E0E0E0"/>
<path d="M142.106 519.931C141.965 519.931 141.836 483.828 141.824 439.292C141.812 394.757 141.93 358.642 142.071 358.642C142.212 358.642 142.342 394.734 142.353 439.292C142.365 483.851 142.247 519.931 142.106 519.931Z" fill="#E0E0E0"/>
<path d="M173.658 411.762C173.227 411.981 172.774 412.155 172.306 412.28L168.566 413.538C165.415 414.608 161.087 416.16 156.395 418.089C151.703 420.018 147.351 421.699 144.858 423.863C143.848 424.691 143.043 425.742 142.506 426.933C142.142 427.779 142.083 428.297 142.036 428.297C141.989 428.297 142.036 428.156 142.036 427.909C142.096 427.553 142.186 427.202 142.306 426.862C142.777 425.602 143.553 424.479 144.564 423.593C146.073 422.317 147.761 421.271 149.574 420.488C151.573 419.547 153.796 418.571 156.148 417.607C160.852 415.678 165.215 414.173 168.402 413.185C170.001 412.691 171.295 412.327 172.2 412.08C172.675 411.928 173.163 411.822 173.658 411.762Z" fill="#E0E0E0"/>
<path d="M184.007 386.361C183.897 386.511 183.766 386.646 183.619 386.76L182.443 387.854L178.115 391.782L163.721 404.6C158.1 409.61 153.243 414.385 149.88 417.983C148.186 419.782 146.857 421.276 145.952 422.311L144.905 423.487C144.796 423.635 144.665 423.766 144.517 423.875C144.605 423.71 144.711 423.556 144.835 423.416C145.046 423.122 145.364 422.687 145.799 422.158C146.657 421.076 147.951 419.547 149.609 417.713C153.953 412.964 158.546 408.45 163.368 404.189C169.013 399.202 174.141 394.71 177.868 391.488C179.703 389.912 181.208 388.63 182.302 387.678L183.478 386.666C183.64 386.541 183.818 386.438 184.007 386.361Z" fill="#E0E0E0"/>
<path d="M157.677 409.692C157.524 409.622 158.7 406.917 159.876 403.483C161.052 400.049 161.604 397.168 161.757 397.192C161.635 399.403 161.167 401.582 160.37 403.648C159.865 405.113 159.28 406.55 158.617 407.952C158.381 408.571 158.065 409.156 157.677 409.692Z" fill="#E0E0E0"/>
<path d="M142.142 431.543C141.812 431.246 141.52 430.91 141.271 430.543L139.049 427.697C137.191 425.286 134.615 421.958 131.722 418.289C128.829 414.62 126.183 411.386 124.255 409.022L122.032 406.247C121.734 405.917 121.47 405.559 121.244 405.177C121.587 405.459 121.902 405.774 122.185 406.117C122.761 406.741 123.584 407.67 124.537 408.822C126.536 411.174 129.241 414.349 132.134 417.995C135.027 421.641 137.555 425.051 139.343 427.474C140.248 428.65 140.954 429.72 141.436 430.425C141.709 430.773 141.945 431.147 142.142 431.543Z" fill="#E0E0E0"/>
<path d="M135.215 422.664C133.821 421.121 132.827 419.259 132.322 417.242C131.772 415.471 131.549 413.614 131.663 411.762H131.899C131.867 411.986 131.791 412.202 131.675 412.397C131.675 412.397 131.675 412.15 131.675 411.727H131.91C132.02 413.531 132.328 415.317 132.828 417.054C133.487 418.979 134.285 420.854 135.215 422.664Z" fill="#E0E0E0"/>
<path d="M126.289 411.48C125.664 411.01 124.985 410.615 124.266 410.304C122.446 409.755 120.529 409.603 118.645 409.857C116.737 409.996 114.845 410.299 112.989 410.763C112.217 411 111.432 411.189 110.637 411.327C111.323 410.904 112.074 410.594 112.859 410.41C114.721 409.834 116.642 409.471 118.586 409.328C120.537 409.069 122.521 409.283 124.372 409.951C125.169 410.223 125.847 410.764 126.289 411.48Z" fill="#E0E0E0"/>
<path d="M124.172 408.705C124.172 408.787 122.996 408.234 121.068 407.529C116.042 405.818 110.664 405.414 105.439 406.353C103.439 406.705 102.24 407.082 102.205 406.999C102.458 406.837 102.736 406.718 103.028 406.647C103.797 406.377 104.583 406.157 105.38 405.988C108.008 405.412 110.706 405.222 113.388 405.424C116.066 405.633 118.7 406.227 121.209 407.188C121.966 407.478 122.705 407.816 123.42 408.199C123.695 408.328 123.949 408.498 124.172 408.705Z" fill="#E0E0E0"/>
<path d="M142.024 397.192C141.103 394.624 140.349 392 139.766 389.336C139.006 386.715 138.417 384.048 138.002 381.351C138.924 383.919 139.682 386.543 140.272 389.207C141.025 391.828 141.61 394.495 142.024 397.192Z" fill="#E0E0E0"/>
<path d="M142.212 397.192C141.489 395.567 140.652 393.995 139.707 392.488C138.648 391.062 137.407 389.781 136.015 388.677C136.54 388.812 137.026 389.065 137.438 389.418C138.486 390.18 139.396 391.114 140.131 392.182C141.254 393.639 141.972 395.367 142.212 397.192Z" fill="#E0E0E0"/>
<path d="M142.106 500.68C142.106 500.68 141.942 499.809 141.53 498.328C140.954 496.17 140.166 494.074 139.178 492.071C135.701 485.54 131.401 479.481 126.383 474.043C123.526 470.774 120.75 467.693 118.398 464.741C116.281 462.15 114.37 459.398 112.683 456.509C111.548 454.557 110.584 452.511 109.802 450.394C109.531 449.641 109.343 449.053 109.237 448.653C109.168 448.45 109.117 448.242 109.084 448.03C109.084 448.03 109.39 448.853 109.99 450.323C110.844 452.394 111.85 454.399 113 456.321C114.723 459.164 116.649 461.88 118.763 464.447C121.115 467.363 123.914 470.421 126.771 473.69C131.826 479.162 136.114 485.294 139.519 491.918C140.502 493.951 141.263 496.084 141.789 498.281C141.928 498.878 142.034 499.482 142.106 500.092C142.124 500.287 142.124 500.484 142.106 500.68Z" fill="#E0E0E0"/>
<path d="M170.624 468.481C170.141 468.784 169.643 469.063 169.131 469.316C167.776 470.073 166.479 470.93 165.25 471.879C163.43 473.288 161.727 474.841 160.158 476.525C158.37 478.406 156.536 480.593 154.654 482.945C150.903 487.649 147.387 491.836 145.246 495.164C144.176 496.811 143.4 498.198 142.894 499.174C142.653 499.693 142.378 500.196 142.071 500.68C142.071 500.68 142.071 500.527 142.212 500.256C142.353 499.986 142.471 499.586 142.706 499.08C143.374 497.667 144.128 496.296 144.964 494.976C147.821 490.688 150.918 486.565 154.243 482.628C156.124 480.276 157.994 478.089 159.817 476.195C161.421 474.518 163.164 472.98 165.027 471.597C166.297 470.646 167.651 469.812 169.072 469.104C169.453 468.908 169.846 468.736 170.248 468.587C170.491 468.492 170.617 468.457 170.624 468.481Z" fill="#E0E0E0"/>
<path d="M171.177 478.924C170.135 479.152 169.078 479.306 168.014 479.382C165.476 479.642 162.968 480.138 160.522 480.864C158.104 481.65 155.837 482.843 153.819 484.392C152.279 485.568 151.55 486.568 151.467 486.521C151.385 486.474 151.585 486.227 151.926 485.791C152.417 485.177 152.969 484.614 153.572 484.11C155.573 482.439 157.877 481.169 160.358 480.37C162.834 479.631 165.387 479.181 167.967 479.029C169.031 478.896 170.106 478.86 171.177 478.924Z" fill="#E0E0E0"/>
<path d="M152.396 485.356C152.232 485.262 153.655 483.087 154.748 480.158C155.842 477.23 156.03 474.619 156.207 474.655C156.307 475.215 156.307 475.788 156.207 476.348C156.046 477.71 155.739 479.051 155.289 480.346C154.806 481.626 154.191 482.851 153.455 484.004C153.181 484.511 152.823 484.969 152.396 485.356Z" fill="#E0E0E0"/>
<path d="M179.856 440.421C179.703 440.537 179.532 440.629 179.35 440.692L177.868 441.362C177.21 441.644 176.422 441.997 175.516 442.468C174.611 442.938 173.576 443.408 172.494 444.055L170.777 445.031C170.177 445.384 169.601 445.784 168.954 446.207C167.684 446.972 166.414 447.924 165.05 448.889C162.168 451.076 159.448 453.469 156.912 456.05C154.424 458.66 152.132 461.451 150.056 464.4C149.127 465.799 148.222 467.105 147.492 468.398C147.128 469.033 146.74 469.645 146.41 470.257L145.552 472.021C144.94 473.126 144.505 474.184 144.07 475.09C143.635 475.995 143.306 476.795 143.047 477.442C142.788 478.089 142.588 478.547 142.424 478.947C142.359 479.128 142.277 479.301 142.177 479.465C142.199 479.274 142.251 479.087 142.33 478.912L142.859 477.371C143.094 476.701 143.388 475.878 143.8 474.961C144.211 474.043 144.623 472.961 145.223 471.844C145.505 471.268 145.811 470.668 146.116 470.057C146.422 469.445 146.81 468.881 147.187 468.175C147.904 466.858 148.798 465.541 149.715 464.13C153.843 458.094 158.96 452.798 164.85 448.465C166.226 447.501 167.52 446.56 168.802 445.807C169.448 445.419 170.048 445.008 170.648 444.631L172.4 443.667C173.506 443.044 174.564 442.585 175.469 442.15C176.235 441.768 177.02 441.427 177.821 441.127L179.35 440.539C179.515 440.483 179.684 440.444 179.856 440.421Z" fill="#E0E0E0"/>
<path d="M157.312 455.545C157.498 454.82 157.91 454.174 158.488 453.698C159.879 452.488 161.654 451.809 163.498 451.782C165.3 451.773 167.087 452.121 168.754 452.805C169.459 453.032 170.128 453.356 170.742 453.769C170.022 453.634 169.317 453.429 168.637 453.157C166.988 452.587 165.255 452.297 163.51 452.299C161.779 452.336 160.106 452.925 158.735 453.981C158.22 454.464 157.744 454.987 157.312 455.545Z" fill="#E0E0E0"/>
<path d="M153.913 459.026C154.583 457.552 155.061 455.999 155.336 454.404C155.432 452.79 155.325 451.17 155.019 449.582C155.321 449.979 155.523 450.443 155.607 450.935C156.215 453.26 155.925 455.729 154.795 457.85C154.348 458.649 153.96 459.061 153.913 459.026Z" fill="#E0E0E0"/>
<path d="M117.163 505.854C117.939 519.66 122.103 533.69 128.5 547.884H156.312C162.416 533.831 166.285 519.825 166.967 505.854H117.163Z" fill="#E0E0E0"/>
<path d="M162.463 528.186C162.463 528.327 153.302 528.445 142.012 528.445C130.723 528.445 121.562 528.327 121.562 528.186C121.562 528.045 130.711 527.904 142.024 527.904C153.337 527.904 162.463 528.045 162.463 528.186Z" fill="#FAFAFA"/>
<path d="M161.84 533.184C161.84 533.325 153.255 533.443 142.671 533.443C132.087 533.443 123.49 533.325 123.49 533.184C123.49 533.043 132.075 532.926 142.671 532.926C153.267 532.926 161.84 533.043 161.84 533.184Z" fill="#FAFAFA"/>
<path d="M128.947 514.968C129.292 519.23 129.292 523.513 128.947 527.775C128.602 523.513 128.602 519.23 128.947 514.968Z" fill="#FAFAFA"/>
<path d="M143.847 514.968C144.192 519.383 144.192 523.818 143.847 528.233C143.502 523.818 143.502 519.383 143.847 514.968Z" fill="#FAFAFA"/>
<path d="M157.841 514.803C158.186 519.309 158.186 523.834 157.841 528.339C157.496 523.834 157.496 519.309 157.841 514.803Z" fill="#FAFAFA"/>
<path d="M166.085 514.968C166.085 515.109 155.348 515.227 142.106 515.227C128.865 515.227 118.104 515.109 118.104 514.968C118.104 514.827 128.853 514.709 142.106 514.709C155.36 514.709 166.085 514.768 166.085 514.968Z" fill="#FAFAFA"/>
<path d="M597.595 386.231C600.14 385.107 602.299 383.261 603.806 380.922C605.313 378.583 606.102 375.854 606.074 373.072C606.074 365.216 600.194 358.819 592.797 358.795C585.4 358.772 579.425 365.099 579.402 372.907C579.349 375.711 580.126 378.468 581.637 380.831C583.148 383.194 585.325 385.056 587.893 386.184C567.371 389.277 568.301 411.574 568.301 411.574L616.834 411.798C616.834 411.798 617.939 389.301 597.595 386.231Z" fill="#EBEBEB"/>
<path d="M379.423 61.9846C381.211 61.6335 382.858 60.771 384.165 59.5017C385.472 58.2325 386.382 56.6111 386.785 54.8345C387.12 53.6944 387.218 52.4981 387.076 51.3185C386.933 50.139 386.551 49.0009 385.954 47.9736C385.357 46.9464 384.557 46.0515 383.602 45.3436C382.648 44.6357 381.56 44.1296 380.403 43.8561C379.247 43.5826 378.047 43.5475 376.877 43.753C375.707 43.9584 374.59 44.4 373.596 45.0509C372.602 45.7018 371.751 46.5484 371.095 47.539C370.439 48.5295 369.992 49.6434 369.78 50.8126C369.328 52.5956 369.415 54.4727 370.03 56.2062C370.646 57.9397 371.762 59.4514 373.237 60.5499C359.678 59.4797 356.985 73.8504 356.985 73.8504L387.914 81.1769C387.914 81.1769 391.959 66.912 379.423 61.9846Z" fill="#EBEBEB"/>
<path d="M598.923 181.701C600.406 180.774 601.585 179.431 602.312 177.841C603.04 176.25 603.284 174.481 603.016 172.752C602.928 171.608 602.605 170.494 602.07 169.479C601.534 168.464 600.796 167.57 599.901 166.851C599.006 166.133 597.973 165.605 596.866 165.301C595.759 164.998 594.602 164.924 593.466 165.085C592.33 165.246 591.238 165.639 590.26 166.238C589.281 166.837 588.435 167.631 587.775 168.57C587.115 169.509 586.655 170.573 586.422 171.697C586.189 172.821 586.189 173.98 586.423 175.104C586.639 176.854 587.371 178.5 588.524 179.834C589.678 181.168 591.202 182.129 592.902 182.595C580.425 186.37 583 200.153 583 200.153L613.2 195.931C613.2 195.931 611.848 181.784 598.923 181.701Z" fill="#F5F5F5"/>
<path d="M114.364 185.97L98.0533 172.999L102.569 167.307L113.518 175.998L129.488 158.134L134.909 162.979L114.364 185.97Z" fill="#F5F5F5"/>
<path d="M608.496 548.296C608.496 548.472 490.72 548.602 345.484 548.602C200.248 548.602 82.4479 548.472 82.4479 548.296C82.4479 548.119 200.189 547.99 345.484 547.99C490.779 547.99 608.496 548.131 608.496 548.296Z" fill="#263238"/>
<path d="M136.614 204.751L100.546 222.85C99.238 223.42 98.1252 224.36 97.3457 225.556C96.5661 226.751 96.1539 228.149 96.16 229.576V246.452C96.1186 261.802 100.588 276.827 109.014 289.658C115.517 299.56 124.137 312.214 138.472 319.446H144.94C160.911 314.578 172.823 301.606 180.103 290.505C188.532 277.674 193.006 262.65 192.968 247.299V229.576C192.966 228.143 192.544 226.742 191.754 225.546C190.964 224.351 189.841 223.413 188.523 222.85L147.375 205.339C145.552 204.563 138.496 203.975 136.614 204.751Z" fill="#407BFF"/>
<path opacity="0.3" d="M136.614 204.751L100.546 222.85C99.238 223.42 98.1252 224.36 97.3457 225.556C96.5661 226.751 96.1539 228.149 96.16 229.576V246.452C96.1186 261.802 100.588 276.827 109.014 289.658C115.517 299.56 124.137 312.214 138.472 319.446H144.94C160.911 314.578 172.823 301.606 180.103 290.505C188.532 277.674 193.006 262.65 192.968 247.299V229.576C192.966 228.143 192.544 226.742 191.754 225.546C190.964 224.351 189.841 223.413 188.523 222.85L147.375 205.339C145.552 204.563 138.496 203.975 136.614 204.751Z" fill="black"/>
<path d="M135.168 205.339L94.0667 222.85C92.7491 223.413 91.6257 224.351 90.8355 225.547C90.0454 226.742 89.6233 228.143 89.6215 229.576V246.452C89.6224 262.081 94.2587 277.358 102.944 290.351C111.629 303.344 123.973 313.47 138.414 319.446C154.372 314.578 166.285 301.606 173.576 290.505C182.005 277.674 186.479 262.65 186.442 247.299V229.576C186.441 228.145 186.02 226.744 185.232 225.549C184.444 224.353 183.323 223.415 182.008 222.85L140.848 205.339C139.949 204.962 138.983 204.767 138.008 204.767C137.033 204.767 136.067 204.962 135.168 205.339Z" fill="#407BFF"/>
<path opacity="0.3" d="M147.784 281.882C161.657 276.501 168.541 260.893 163.16 247.02C157.779 233.147 142.171 226.263 128.299 231.644C114.426 237.025 107.542 252.633 112.923 266.506C118.304 280.379 133.912 287.263 147.784 281.882Z" fill="black"/>
<path d="M138.026 258.259C144.202 258.259 149.209 253.252 149.209 247.075C149.209 240.899 144.202 235.891 138.026 235.891C131.849 235.891 126.842 240.899 126.842 247.075C126.842 253.252 131.849 258.259 138.026 258.259Z" fill="white"/>
<path d="M117.61 274.323C119.409 270.56 122.247 267.391 125.79 265.19C129.333 262.99 133.432 261.849 137.602 261.905C141.879 261.905 146.076 263.059 149.751 265.245C153.427 267.43 156.445 270.566 158.488 274.323C158.488 274.323 151.891 284.084 137.32 283.731C133.544 283.716 129.818 282.864 126.41 281.238C123.002 279.611 119.997 277.25 117.61 274.323Z" fill="white"/>
<path d="M164.968 256.765C164.954 256.621 164.954 256.475 164.968 256.33C164.968 256.013 164.968 255.589 164.862 255.06C164.862 254.778 164.862 254.461 164.862 254.119C164.862 253.778 164.744 253.402 164.685 252.943C164.563 252.01 164.374 251.087 164.121 250.18C163.482 247.668 162.471 245.266 161.122 243.053C159.353 240.116 157.038 237.545 154.301 235.48C150.996 232.966 147.144 231.266 143.059 230.517C138.369 229.654 133.533 230.06 129.053 231.693C127.84 232.114 126.661 232.625 125.525 233.222C124.389 233.844 123.296 234.544 122.255 235.315C121.197 236.112 120.187 236.972 119.233 237.891C118.298 238.861 117.426 239.89 116.622 240.972C114.976 243.202 113.694 245.678 112.824 248.31C110.989 253.765 110.989 259.671 112.824 265.127C113.689 267.761 114.971 270.238 116.622 272.465C117.425 273.551 118.298 274.584 119.233 275.558C120.185 276.476 121.194 277.333 122.255 278.122C124.297 279.679 126.571 280.905 128.994 281.755C133.474 283.389 138.31 283.795 143 282.931C146.725 282.23 150.259 280.75 153.372 278.587C156.485 276.425 159.106 273.629 161.063 270.384C162.397 268.185 163.392 265.799 164.015 263.304C164.267 262.393 164.456 261.466 164.58 260.529C164.58 260.129 164.721 259.753 164.756 259.353C164.791 258.953 164.756 258.694 164.756 258.412L164.862 257.13C164.85 256.985 164.85 256.84 164.862 256.695C164.875 256.84 164.875 256.985 164.862 257.13C164.862 257.459 164.862 257.883 164.862 258.424C164.862 258.706 164.862 259.023 164.862 259.364C164.862 259.705 164.768 260.094 164.709 260.54C164.615 261.49 164.442 262.43 164.192 263.351C163.595 265.899 162.607 268.338 161.263 270.583C158.068 276.039 153.061 280.203 147.115 282.352C141.168 284.5 134.656 284.497 128.712 282.343C127.501 281.908 126.322 281.39 125.184 280.791C124.026 280.14 122.918 279.405 121.867 278.592C120.773 277.79 119.736 276.914 118.763 275.97C117.827 274.992 116.955 273.955 116.152 272.865C114.459 270.588 113.141 268.055 112.248 265.362C111.355 262.582 110.883 259.685 110.848 256.765C110.881 253.845 111.357 250.947 112.259 248.169C113.144 245.474 114.458 242.941 116.152 240.666C116.979 239.56 117.874 238.508 118.833 237.514C119.803 236.571 120.837 235.694 121.926 234.892C122.969 234.096 124.065 233.373 125.207 232.728C126.346 232.126 127.524 231.603 128.735 231.164C133.308 229.507 138.241 229.101 143.024 229.988C146.817 230.717 150.411 232.249 153.565 234.48C156.719 236.711 159.36 239.59 161.31 242.924C162.654 245.173 163.642 247.617 164.239 250.168C164.489 251.085 164.662 252.021 164.756 252.967C164.756 253.379 164.885 253.755 164.909 254.143V255.096C164.909 255.637 164.909 256.06 164.909 256.377C164.939 256.505 164.959 256.635 164.968 256.765Z" fill="#263238"/>
<path d="M186.3 242.724C186.355 242.983 186.383 243.247 186.383 243.512C186.383 244.076 186.383 244.817 186.477 245.746C186.571 246.675 186.571 247.898 186.477 249.274C186.477 249.968 186.477 250.697 186.477 251.485C186.477 252.273 186.477 253.096 186.324 253.955C186.159 255.684 186.042 257.589 185.677 259.611C185.524 260.623 185.395 261.669 185.183 262.74C184.972 263.81 184.713 264.903 184.478 266.032C183.347 270.894 181.772 275.641 179.774 280.215C177.708 284.765 175.241 289.122 172.4 293.233C171.036 295.08 169.778 296.867 168.413 298.408C167.755 299.184 167.143 299.972 166.497 300.666L164.627 302.641C163.451 303.947 162.275 304.993 161.263 305.922C160.417 306.754 159.526 307.54 158.594 308.274L156.853 309.685C156.662 309.857 156.453 310.006 156.23 310.132C156.397 309.935 156.582 309.754 156.783 309.591L158.441 308.098C159.182 307.463 160.064 306.675 161.028 305.746C161.993 304.817 163.168 303.723 164.309 302.418L166.144 300.419C166.779 299.725 167.32 298.937 168.025 298.161C169.354 296.62 170.589 294.833 171.941 292.974C174.733 288.88 177.164 284.552 179.209 280.038C181.196 275.485 182.771 270.762 183.913 265.926L184.642 262.657C184.854 261.599 184.995 260.552 185.171 259.553C185.548 257.553 185.689 255.66 185.877 253.943C185.983 253.085 186.053 252.261 186.077 251.485L186.183 249.286C186.289 247.91 186.265 246.722 186.265 245.758C186.265 244.794 186.265 244.1 186.265 243.524C186.257 243.257 186.269 242.989 186.3 242.724Z" fill="#263238"/>
<path d="M472.257 548.296H194.18C192.358 548.265 190.56 547.876 188.888 547.15C187.217 546.424 185.705 545.376 184.44 544.065C183.174 542.754 182.179 541.207 181.511 539.512C180.844 537.816 180.517 536.006 180.55 534.184V109.154C180.517 107.332 180.844 105.522 181.511 103.826C182.179 102.131 183.174 100.583 184.44 99.2727C185.705 97.9621 187.217 96.9138 188.888 96.1879C190.56 95.4619 192.358 95.0725 194.18 95.0419H472.257C474.078 95.0725 475.875 95.462 477.546 96.1881C479.217 96.9142 480.728 97.9627 481.992 99.2734C483.257 100.584 484.251 102.132 484.917 103.827C485.584 105.522 485.909 107.333 485.875 109.154V534.207C485.906 536.027 485.578 537.834 484.911 539.527C484.243 541.22 483.249 542.764 481.984 544.073C480.719 545.381 479.209 546.427 477.54 547.152C475.871 547.876 474.076 548.265 472.257 548.296Z" fill="#263238"/>
<path d="M338.545 527.681C338.59 530.248 337.869 532.771 336.475 534.927C335.08 537.084 333.076 538.776 330.716 539.79C328.357 540.803 325.749 541.092 323.225 540.618C320.701 540.144 318.376 538.93 316.544 537.13C314.713 535.331 313.458 533.026 312.941 530.511C312.423 527.996 312.666 525.383 313.638 523.007C314.61 520.63 316.268 518.596 318.4 517.165C320.532 515.733 323.041 514.968 325.609 514.968C329.01 514.94 332.283 516.263 334.709 518.647C337.134 521.03 338.514 524.28 338.545 527.681Z" fill="#455A64"/>
<path d="M364.5 119.009H302.172C301.591 119 301.018 118.876 300.485 118.645C299.952 118.415 299.47 118.081 299.066 117.664C298.661 117.247 298.344 116.754 298.13 116.214C297.916 115.674 297.811 115.097 297.82 114.516C297.802 113.343 298.249 112.209 299.065 111.365C299.881 110.52 300.998 110.034 302.172 110.012H364.5C365.674 110.034 366.791 110.52 367.607 111.365C368.422 112.209 368.87 113.343 368.851 114.516C368.86 115.097 368.755 115.674 368.541 116.214C368.328 116.754 368.01 117.247 367.606 117.664C367.202 118.081 366.719 118.415 366.187 118.645C365.654 118.876 365.08 119 364.5 119.009Z" fill="#455A64"/>
<path d="M475.996 127.394H189.922V505.901H475.996V127.394Z" fill="white"/>
<path d="M475.996 127.394H463.789V505.901H475.996V127.394Z" fill="#F5F5F5"/>
<path d="M469.881 263.386C468.872 263.383 467.906 262.98 467.194 262.266C466.482 261.552 466.082 260.585 466.082 259.576V175.857C466.082 174.848 466.482 173.881 467.194 173.166C467.906 172.452 468.872 172.049 469.881 172.046C470.892 172.046 471.861 172.448 472.575 173.162C473.29 173.877 473.691 174.846 473.691 175.857V259.576C473.691 260.587 473.29 261.556 472.575 262.27C471.861 262.985 470.892 263.386 469.881 263.386Z" fill="#E0E0E0"/>
<path d="M438.682 213.536H227.754C226.145 213.536 224.602 212.896 223.464 211.758C222.326 210.62 221.686 209.077 221.686 207.467C221.686 205.858 222.326 204.315 223.464 203.177C224.602 202.039 226.145 201.399 227.754 201.399H438.682C440.291 201.399 441.835 202.039 442.973 203.177C444.111 204.315 444.75 205.858 444.75 207.467C444.75 209.077 444.111 210.62 442.973 211.758C441.835 212.896 440.291 213.536 438.682 213.536Z" fill="#E0E0E0"/>
<path d="M406.236 169.224H273.548C271.938 169.224 270.395 168.585 269.257 167.447C268.119 166.309 267.48 164.765 267.48 163.156C267.48 161.546 268.119 160.003 269.257 158.865C270.395 157.727 271.938 157.088 273.548 157.088H406.236C407.845 157.088 409.389 157.727 410.527 158.865C411.665 160.003 412.304 161.546 412.304 163.156C412.304 164.765 411.665 166.309 410.527 167.447C409.389 168.585 407.845 169.224 406.236 169.224Z" fill="#407BFF"/>
<path d="M408.729 237.961H257.707C256.098 237.961 254.554 237.322 253.416 236.184C252.278 235.046 251.639 233.502 251.639 231.893C251.639 230.284 252.278 228.74 253.416 227.602C254.554 226.464 256.098 225.825 257.707 225.825H408.729C409.526 225.825 410.315 225.982 411.051 226.287C411.787 226.592 412.456 227.039 413.02 227.602C413.583 228.166 414.03 228.835 414.335 229.571C414.64 230.307 414.797 231.096 414.797 231.893C414.797 232.69 414.64 233.479 414.335 234.215C414.03 234.951 413.583 235.62 413.02 236.184C412.456 236.747 411.787 237.194 411.051 237.499C410.315 237.804 409.526 237.961 408.729 237.961Z" fill="#E0E0E0"/>
<path d="M340.545 344.448H224.344C222.735 344.448 221.191 343.809 220.053 342.671C218.915 341.533 218.276 339.989 218.276 338.38C218.276 337.583 218.433 336.794 218.738 336.058C219.043 335.321 219.49 334.652 220.053 334.089C220.617 333.525 221.286 333.079 222.022 332.774C222.758 332.469 223.547 332.312 224.344 332.312H340.545C341.341 332.312 342.13 332.469 342.867 332.774C343.603 333.079 344.272 333.525 344.835 334.089C345.399 334.652 345.846 335.321 346.151 336.058C346.456 336.794 346.613 337.583 346.613 338.38C346.613 339.989 345.973 341.533 344.835 342.671C343.697 343.809 342.154 344.448 340.545 344.448Z" fill="#E0E0E0"/>
<path d="M435.271 319.011H224.344C222.735 319.011 221.191 318.372 220.053 317.234C218.915 316.096 218.276 314.552 218.276 312.943C218.276 312.147 218.433 311.358 218.738 310.622C219.043 309.887 219.49 309.219 220.054 308.656C220.617 308.094 221.287 307.648 222.023 307.344C222.759 307.04 223.548 306.885 224.344 306.886H435.271C436.068 306.885 436.856 307.04 437.593 307.344C438.329 307.648 438.998 308.094 439.561 308.656C440.125 309.219 440.572 309.887 440.877 310.622C441.182 311.358 441.339 312.147 441.339 312.943C441.339 313.74 441.183 314.529 440.878 315.265C440.573 316.001 440.126 316.67 439.562 317.234C438.999 317.797 438.33 318.244 437.594 318.549C436.857 318.854 436.068 319.011 435.271 319.011Z" fill="#E0E0E0"/>
<path d="M435.271 388.724H250.651C247.3 388.724 244.583 391.441 244.583 394.793C244.583 398.144 247.3 400.861 250.651 400.861H435.271C438.623 400.861 441.339 398.144 441.339 394.793C441.339 391.441 438.623 388.724 435.271 388.724Z" fill="#E0E0E0"/>
<path d="M435.271 426.768H224.344C222.735 426.768 221.191 426.129 220.053 424.991C218.915 423.853 218.276 422.309 218.276 420.7C218.282 419.094 218.924 417.557 220.061 416.424C221.199 415.291 222.739 414.655 224.344 414.655H435.271C436.068 414.655 436.857 414.812 437.594 415.117C438.33 415.422 438.999 415.869 439.562 416.432C440.126 416.996 440.573 417.665 440.878 418.401C441.183 419.137 441.339 419.926 441.339 420.723C441.333 422.329 440.691 423.866 439.554 424.999C438.417 426.132 436.877 426.768 435.271 426.768Z" fill="#E0E0E0"/>
<path d="M435.271 453.134H224.344C222.735 453.134 221.191 452.495 220.053 451.357C218.915 450.219 218.276 448.675 218.276 447.066C218.276 445.456 218.915 443.913 220.053 442.775C221.191 441.637 222.735 440.998 224.344 440.998H435.271C436.068 440.998 436.857 441.154 437.594 441.459C438.33 441.764 438.999 442.211 439.562 442.775C440.126 443.338 440.573 444.007 440.878 444.744C441.183 445.48 441.339 446.269 441.339 447.066C441.339 448.675 440.7 450.219 439.562 451.357C438.424 452.495 436.881 453.134 435.271 453.134Z" fill="#E0E0E0"/>
<path d="M233.834 394.792C233.834 396.04 233.464 397.259 232.771 398.296C232.078 399.332 231.093 400.14 229.94 400.617C228.788 401.094 227.52 401.218 226.297 400.974C225.074 400.73 223.951 400.128 223.07 399.245C222.189 398.363 221.589 397.239 221.347 396.015C221.105 394.791 221.232 393.524 221.711 392.372C222.19 391.221 222.999 390.237 224.038 389.546C225.076 388.855 226.296 388.487 227.543 388.489C229.212 388.492 230.813 389.158 231.992 390.339C233.172 391.521 233.834 393.123 233.834 394.792Z" fill="#407BFF"/>
<path d="M435.271 295.315H250.639C249.03 295.315 247.486 294.675 246.348 293.537C245.21 292.399 244.571 290.856 244.571 289.247C244.571 287.637 245.21 286.094 246.348 284.956C247.486 283.818 249.03 283.178 250.639 283.178H435.271C436.068 283.178 436.857 283.335 437.593 283.64C438.33 283.945 438.999 284.392 439.562 284.956C440.126 285.519 440.573 286.188 440.878 286.924C441.183 287.661 441.339 288.45 441.339 289.247C441.339 290.043 441.183 290.832 440.878 291.569C440.573 292.305 440.126 292.974 439.562 293.537C438.999 294.101 438.33 294.548 437.593 294.853C436.857 295.158 436.068 295.315 435.271 295.315Z" fill="#E0E0E0"/>
<path d="M227.543 295.55C231.024 295.55 233.846 292.728 233.846 289.246C233.846 285.765 231.024 282.943 227.543 282.943C224.061 282.943 221.239 285.765 221.239 289.246C221.239 292.728 224.061 295.55 227.543 295.55Z" fill="#407BFF"/>
<path d="M429.38 491.718H382.046C379.482 491.718 377.023 490.7 375.21 488.887C373.397 487.074 372.379 484.616 372.379 482.052C372.379 479.488 373.397 477.029 375.21 475.216C377.023 473.403 379.482 472.385 382.046 472.385H429.38C431.943 472.385 434.402 473.403 436.215 475.216C438.028 477.029 439.046 479.488 439.046 482.052C439.046 484.616 438.028 487.074 436.215 488.887C434.402 490.7 431.943 491.718 429.38 491.718Z" fill="#407BFF"/>
<path d="M185.536 35.5716L136.473 60.1853C134.678 60.9486 133.147 62.2228 132.07 63.8496C130.993 65.4763 130.418 67.3837 130.417 69.3346V92.2901C130.359 113.182 136.444 133.63 147.916 151.09C156.759 164.52 168.472 181.737 187.982 191.568H196.779C218.487 184.947 234.693 167.295 244.606 152.207C256.078 134.747 262.163 114.299 262.105 93.4073V69.3346C262.108 67.389 261.54 65.4854 260.472 63.8592C259.404 62.233 257.883 60.9557 256.096 60.1853L200.165 36.336C197.672 35.3129 188.029 34.5132 185.536 35.5716Z" fill="#407BFF"/>
<path opacity="0.3" d="M185.536 35.5716L136.473 60.1853C134.678 60.9486 133.147 62.2228 132.07 63.8496C130.993 65.4763 130.418 67.3837 130.417 69.3346V92.2901C130.359 113.182 136.444 133.63 147.916 151.09C156.759 164.52 168.472 181.737 187.982 191.568H196.779C218.487 184.947 234.693 167.295 244.606 152.207C256.078 134.747 262.163 114.299 262.105 93.4073V69.3346C262.108 67.389 261.54 65.4854 260.472 63.8592C259.404 62.233 257.883 60.9557 256.096 60.1853L200.165 36.336C197.672 35.3129 188.029 34.5132 185.536 35.5716Z" fill="black"/>
<path d="M183.56 36.336L127.665 60.1853C125.871 60.9491 124.341 62.2238 123.266 63.8507C122.192 65.4776 121.619 67.3847 121.62 69.3346V92.2901C121.623 113.546 127.93 134.324 139.742 151.995C151.555 169.667 168.342 183.438 187.982 191.568C209.691 184.947 225.896 167.295 235.798 152.207C247.275 134.749 253.361 114.3 253.297 93.4073V69.3346C253.298 67.3847 252.726 65.4776 251.651 63.8507C250.576 62.2238 249.047 60.9491 247.252 60.1853L191.416 36.336C190.175 35.8042 188.839 35.5299 187.488 35.5299C186.138 35.5299 184.802 35.8042 183.56 36.336Z" fill="#407BFF"/>
<path d="M253.121 87.2216C253.135 87.3111 253.135 87.4025 253.121 87.492C253.121 87.7037 253.121 87.9624 253.121 88.28C253.121 89.0326 253.179 90.044 253.227 91.3258C253.274 92.6076 253.344 94.254 253.227 96.1356C253.227 97.0764 253.227 98.076 253.132 99.1344C253.132 99.6754 253.132 100.216 253.132 100.781C253.132 101.345 253.027 101.957 252.968 102.51C252.733 104.862 252.58 107.449 252.086 110.189C251.862 111.553 251.686 112.988 251.404 114.434C251.121 115.881 250.769 117.374 250.439 118.903C248.886 125.513 246.725 131.966 243.983 138.178C241.181 144.361 237.836 150.284 233.987 155.876C232.129 158.393 230.459 160.827 228.578 162.932C227.672 163.991 226.849 165.061 225.967 166.002L223.427 168.707C221.851 170.471 220.228 171.87 218.876 173.175C218.182 173.81 217.558 174.422 216.959 174.951L215.312 176.28L212.96 178.209L212.337 178.703C212.196 178.808 212.114 178.855 212.114 178.844C212.114 178.832 212.114 178.773 212.29 178.644L212.878 178.115L215.148 176.104L216.806 174.657C217.406 174.128 217.982 173.481 218.687 172.846C220.016 171.529 221.604 170.118 223.156 168.342L225.661 165.614C226.531 164.673 227.343 163.603 228.225 162.544C230.048 160.451 231.753 158.017 233.564 155.488C237.375 149.908 240.693 144.006 243.478 137.848C246.195 131.668 248.356 125.256 249.934 118.691C250.275 117.174 250.592 115.693 250.922 114.258C251.251 112.823 251.392 111.388 251.627 110.024C252.145 107.296 252.321 104.72 252.58 102.38C252.65 101.804 252.709 101.204 252.768 100.675C252.827 100.146 252.768 99.5696 252.838 99.0404C252.885 97.982 252.933 96.9824 252.98 96.0416C253.109 94.1717 253.074 92.5136 253.074 91.2435V88.2917V87.492C253.071 87.3997 253.087 87.3078 253.121 87.2216Z" fill="#263238"/>
<path d="M209.597 118.068H203.635V85.6222C203.53 82.0195 202.025 78.5996 199.439 76.0884C196.854 73.5772 193.391 72.1725 189.787 72.1725C186.183 72.1725 182.721 73.5772 180.135 76.0884C177.55 78.5996 176.045 82.0195 175.94 85.6222V118.068H169.978V85.6222C170.104 80.4519 172.246 75.5357 175.947 71.9235C179.649 68.3113 184.615 66.2893 189.787 66.2893C194.959 66.2893 199.926 68.3113 203.627 71.9235C207.329 75.5357 209.471 80.4519 209.597 85.6222V118.068Z" fill="#F5F5F5"/>
<path d="M209.656 96.0533H169.931C166.157 96.0533 163.098 99.1123 163.098 102.886V131.063C163.098 134.836 166.157 137.895 169.931 137.895H209.656C213.429 137.895 216.488 134.836 216.488 131.063V102.886C216.488 99.1123 213.429 96.0533 209.656 96.0533Z" fill="white"/>
<path d="M209.656 137.895C210.254 137.832 210.847 137.73 211.432 137.59C212.856 137.179 214.107 136.312 214.993 135.123C215.878 133.933 216.35 132.487 216.335 131.004C216.335 129.628 216.335 128.135 216.335 126.523C216.335 123.313 216.335 119.656 216.335 115.61C216.335 111.565 216.335 107.155 216.335 102.404C216.247 101.22 215.84 100.082 215.156 99.1104C214.473 98.1393 213.539 97.3714 212.455 96.8883C211.298 96.412 210.044 96.2185 208.797 96.3238H204.846L169.93 96.312C168.463 96.3115 167.038 96.8056 165.886 97.7146C164.733 98.6236 163.921 99.8944 163.58 101.322C163.427 102.032 163.364 102.759 163.392 103.486V110.107C163.392 115.987 163.392 121.537 163.392 126.888C163.498 129.546 162.945 132.286 164.309 134.379C164.913 135.407 165.784 136.253 166.83 136.827C167.875 137.4 169.056 137.68 170.248 137.637H183.478L202.635 137.743H207.833H209.185C209.342 137.728 209.499 137.728 209.656 137.743C209.499 137.76 209.342 137.76 209.185 137.743H207.833H202.635L183.478 137.837H170.248C169.276 137.88 168.306 137.724 167.397 137.378C166.488 137.032 165.66 136.503 164.963 135.824C164.267 135.145 163.717 134.331 163.347 133.431C162.978 132.531 162.797 131.565 162.816 130.592V126.888C162.816 121.537 162.816 115.928 162.816 110.107V103.533C162.78 102.743 162.848 101.953 163.016 101.181C163.398 99.6394 164.289 98.2721 165.544 97.2999C166.81 96.2987 168.375 95.7519 169.989 95.7476H204.775H208.727C210.052 95.6463 211.383 95.8641 212.608 96.3826C213.777 96.9049 214.783 97.7358 215.516 98.7862C216.25 99.8365 216.683 101.067 216.771 102.345C216.771 107.143 216.771 111.541 216.771 115.587C216.771 119.632 216.771 123.289 216.771 126.5C216.771 128.111 216.771 129.605 216.771 130.981C216.772 132.268 216.413 133.531 215.736 134.626C214.814 136.147 213.331 137.245 211.608 137.684C210.976 137.875 210.314 137.947 209.656 137.895Z" fill="#263238"/>
<path d="M193.886 118.056C194.424 117.52 194.851 116.882 195.141 116.179C195.432 115.477 195.581 114.724 195.579 113.964C195.586 112.868 195.287 111.792 194.715 110.858C194.143 109.923 193.321 109.167 192.343 108.675C191.364 108.182 190.267 107.973 189.176 108.07C188.085 108.168 187.042 108.568 186.166 109.226C185.291 109.885 184.616 110.774 184.219 111.796C183.822 112.817 183.718 113.929 183.919 115.006C184.12 116.083 184.618 117.082 185.357 117.891C186.095 118.7 187.045 119.287 188.1 119.585L186.841 125.159H192.427L191.251 119.585C192.227 119.306 193.115 118.78 193.827 118.056" fill="#407BFF"/>
<path d="M558.116 160.016V207.667C558.222 215.899 559.433 228.835 546.356 228.412C535.078 227.236 532.08 216.499 531.997 208.808C531.997 205.163 531.915 202.117 531.88 201.752C531.88 201.752 519.532 200.741 518.485 188.534C517.979 182.654 517.932 170.412 518.015 159.346C518.065 153.614 520.27 148.112 524.192 143.933C528.114 139.753 533.466 137.203 539.183 136.79L540.359 136.708C553.142 136.519 558.328 147.256 558.116 160.016Z" fill="#FFBF9D"/>
<path d="M531.915 201.752C537.556 201.319 542.956 199.278 547.473 195.872C547.473 195.872 544.251 205.08 531.985 204.869L531.915 201.752Z" fill="#FF9A6C"/>
<path d="M538.912 164.355C539.159 164.602 540.57 163.462 542.605 163.415C544.639 163.368 546.133 164.355 546.392 164.097C546.65 163.838 546.25 163.52 545.58 163.062C544.685 162.461 543.624 162.156 542.546 162.192C541.477 162.225 540.447 162.6 539.606 163.262C538.994 163.779 538.795 164.238 538.912 164.355Z" fill="#263238"/>
<path d="M538.877 170.13C538.901 170.562 539.095 170.968 539.417 171.258C539.738 171.549 540.161 171.701 540.594 171.682C540.805 171.683 541.014 171.643 541.209 171.562C541.404 171.481 541.58 171.362 541.729 171.212C541.877 171.062 541.993 170.883 542.071 170.687C542.149 170.491 542.186 170.282 542.182 170.071C542.154 169.641 541.961 169.239 541.643 168.95C541.325 168.66 540.906 168.505 540.476 168.518C540.265 168.518 540.056 168.56 539.862 168.641C539.667 168.722 539.49 168.841 539.341 168.991C539.193 169.141 539.075 169.318 538.995 169.514C538.916 169.709 538.875 169.919 538.877 170.13Z" fill="#263238"/>
<path d="M533.797 178.632C532.783 178.396 531.744 178.286 530.704 178.303C530.222 178.303 529.763 178.22 529.657 177.903C529.579 177.41 529.652 176.906 529.869 176.456C530.245 175.28 530.621 174.022 531.045 172.705C532.632 167.366 533.75 162.991 533.538 162.932C533.326 162.874 531.856 167.143 530.269 172.482C529.892 173.799 529.528 175.057 529.175 176.257C528.919 176.856 528.882 177.526 529.069 178.15C529.148 178.315 529.265 178.46 529.41 178.572C529.555 178.685 529.724 178.761 529.904 178.797C530.177 178.829 530.454 178.829 530.727 178.797C531.753 178.864 532.784 178.809 533.797 178.632Z" fill="#263238"/>
<path d="M539.783 155.653C539.982 156.112 541.617 155.771 543.581 155.865C545.545 155.959 547.109 156.394 547.379 155.959C547.474 155.759 547.168 155.335 546.509 154.936C545.632 154.443 544.65 154.165 543.644 154.124C542.639 154.084 541.638 154.281 540.723 154.7C540.029 155.041 539.7 155.441 539.783 155.653Z" fill="#263238"/>
<path d="M520.367 158.711C520.59 159.087 522.178 158.711 524.118 158.616C526.059 158.522 527.646 158.805 527.858 158.417C527.94 158.228 527.623 157.899 526.952 157.605C526.045 157.243 525.07 157.083 524.095 157.135C523.106 157.162 522.135 157.403 521.249 157.84C520.59 158.181 520.273 158.534 520.367 158.711Z" fill="#263238"/>
<path d="M501.88 148.397C501.948 148.149 502.066 147.917 502.226 147.715C502.385 147.513 502.583 147.345 502.809 147.221C503.784 146.777 504.86 146.603 505.925 146.715C509.182 146.655 512.358 145.69 515.098 143.928C516.378 142.09 517.805 140.359 519.367 138.754C523.071 134.944 526.106 132.345 529.257 131.075C533.326 129.44 540.135 128.723 544.381 129.899C548.626 131.075 552.436 134.461 553.036 138.801C555.388 136.79 558.986 136.813 561.891 137.978H561.962C565.184 139.154 567.019 142.541 567.971 145.833C568.924 149.126 569.335 152.654 571.076 155.606C571.44 156.217 571.875 156.958 571.558 157.605C571.411 157.839 571.196 158.023 570.942 158.132C570.687 158.242 570.406 158.271 570.135 158.217C569.59 158.1 569.077 157.867 568.63 157.535C568.994 158.405 569.347 159.263 569.712 160.122C568.534 160.327 567.325 160.25 566.184 159.898C565.591 162.834 564.825 165.732 563.89 168.577C562.686 168.435 561.472 168.732 560.468 169.412C559.292 170.435 558.834 172.352 556.94 171.623C555.988 171.247 555.117 169.271 554.788 168.271C552.661 161.758 551.959 154.864 552.73 148.056C551.392 146.632 549.796 145.474 548.026 144.646L548.167 144.775C544.757 143.599 540.9 142.423 537.666 144.022C535.161 145.269 533.691 147.868 531.786 149.902C530.061 151.836 527.962 153.4 525.615 154.497C523.268 155.595 520.722 156.204 518.132 156.288C517.956 159.722 518.238 164.579 518.062 168.048L515.169 162.544C514.941 162.163 514.733 161.771 514.545 161.368V161.251C514.256 160.579 513.93 159.923 513.569 159.287C513.169 159.609 512.666 159.777 512.153 159.76C511.64 159.744 511.149 159.544 510.77 159.198C510.39 158.851 510.148 158.38 510.085 157.871C510.023 157.361 510.145 156.845 510.429 156.417C510.719 156.018 511.068 155.665 511.464 155.371C511.045 155.78 510.525 156.072 509.958 156.218C509.391 156.364 508.795 156.36 508.23 156.206C507.67 156.035 507.182 155.684 506.842 155.208C506.502 154.732 506.328 154.156 506.349 153.571C506.397 153.178 506.548 152.804 506.785 152.487C507.022 152.169 507.338 151.919 507.701 151.76C506.187 151.882 504.671 151.546 503.35 150.796C502.409 150.29 501.562 149.479 501.88 148.397Z" fill="#263238"/>
<path d="M549.167 140.224C549.592 140.581 549.986 140.974 550.343 141.4C551.309 142.562 551.954 143.957 552.213 145.445C552.426 146.466 552.533 147.507 552.53 148.55C552.53 149.726 552.448 150.902 552.354 152.149C552.243 153.478 552.215 154.814 552.272 156.147C552.304 156.859 552.395 157.567 552.542 158.264C552.652 159.007 552.947 159.711 553.401 160.31C553.614 160.547 553.886 160.725 554.189 160.826C554.492 160.927 554.816 160.948 555.129 160.886C555.726 160.777 556.268 160.471 556.67 160.016C557.335 159.106 557.741 158.033 557.846 156.911H557.599C557.963 157.835 558.462 158.699 559.081 159.475C559.672 160.189 560.513 160.651 561.433 160.769C561.865 160.812 562.3 160.734 562.691 160.545C563.055 160.355 563.354 160.06 563.549 159.698C563.726 159.366 563.815 158.993 563.808 158.617C563.79 158.266 563.648 157.933 563.408 157.676L563.279 157.793C564.006 158.624 564.9 159.293 565.901 159.757C566.254 159.914 566.525 160.02 566.713 160.075L567.007 160.145L566.736 160.028C566.548 159.945 566.278 159.84 565.948 159.675C564.978 159.183 564.115 158.503 563.408 157.676L563.279 157.793C563.479 158.049 563.594 158.361 563.609 158.686C563.624 159.01 563.537 159.331 563.361 159.604C563.188 159.923 562.921 160.182 562.597 160.345C562.232 160.521 561.823 160.587 561.421 160.533C560.562 160.435 559.772 160.015 559.21 159.357C558.619 158.594 558.14 157.751 557.787 156.853L557.611 156.464L557.528 156.888C557.403 157.962 556.997 158.983 556.352 159.851C555.984 160.251 555.498 160.522 554.965 160.627C554.699 160.681 554.424 160.665 554.166 160.581C553.908 160.496 553.677 160.346 553.495 160.145C553.071 159.585 552.8 158.925 552.707 158.228C552.562 157.546 552.467 156.855 552.424 156.159C552.368 154.833 552.396 153.506 552.507 152.184C552.577 150.914 552.66 149.714 552.648 148.573C552.641 147.517 552.522 146.465 552.295 145.434C552.009 143.917 551.323 142.504 550.308 141.341C549.994 140.906 549.608 140.529 549.167 140.224Z" fill="#455A64"/>
<path d="M511.406 152.09L511.511 152.172C511.608 152.254 511.71 152.329 511.817 152.395C511.978 152.527 512.151 152.641 512.335 152.737C512.575 152.878 512.822 153.008 513.075 153.125C514.711 153.866 516.505 154.19 518.297 154.065C520.963 153.886 523.52 152.938 525.659 151.337C528.247 149.368 530.401 146.886 531.986 144.046C532.879 142.576 533.597 141.059 534.338 139.659C535.097 138.293 536.048 137.042 537.16 135.943C538.138 134.946 539.351 134.21 540.688 133.803C541.292 133.635 541.919 133.564 542.546 133.591C543.116 133.634 543.677 133.753 544.216 133.944C545.166 134.266 546.036 134.788 546.768 135.473C547.321 135.99 547.786 136.594 548.144 137.26C548.428 137.843 548.638 138.459 548.767 139.095C548.767 139.095 548.767 139.095 548.767 138.966C548.767 138.836 548.767 138.742 548.708 138.589C548.61 138.112 548.452 137.65 548.238 137.213C547.415 135.595 545.999 134.357 544.287 133.756C543.721 133.559 543.132 133.436 542.534 133.391C541.884 133.364 541.234 133.435 540.606 133.603C539.23 134.009 537.98 134.758 536.972 135.779C535.863 136.889 534.924 138.157 534.185 139.542C533.373 140.953 532.644 142.458 531.774 143.928C530.199 146.731 528.076 149.187 525.529 151.149C523.435 152.736 520.929 153.687 518.309 153.889C516.545 154.028 514.773 153.738 513.146 153.042C512.547 152.761 511.965 152.443 511.406 152.09Z" fill="#455A64"/>
<path d="M510.3 146.727C510.3 146.727 510.441 146.857 510.735 147.033C511.15 147.284 511.582 147.504 512.029 147.691C512.694 147.974 513.383 148.198 514.087 148.362C514.947 148.564 515.826 148.683 516.709 148.715C517.595 148.736 518.48 148.677 519.355 148.538C520.063 148.419 520.76 148.238 521.437 147.997C521.898 147.84 522.346 147.647 522.777 147.421C522.94 147.348 523.094 147.257 523.236 147.151C523.236 147.151 522.542 147.445 521.378 147.809C520.699 148.011 520.008 148.168 519.308 148.279C518.451 148.399 517.586 148.45 516.721 148.432C515.856 148.394 514.994 148.288 514.146 148.115C513.453 147.962 512.773 147.758 512.111 147.503C510.982 147.068 510.324 146.68 510.3 146.727Z" fill="#455A64"/>
<path d="M520.284 164.355C520.52 164.602 521.931 163.462 523.977 163.415C526.023 163.368 527.505 164.355 527.764 164.097C528.022 163.838 527.611 163.52 526.952 163.062C526.053 162.461 524.988 162.157 523.906 162.192C522.841 162.224 521.814 162.6 520.978 163.262C520.355 163.779 520.155 164.238 520.284 164.355Z" fill="#263238"/>
<path d="M522.366 170.13C522.393 170.559 522.586 170.961 522.904 171.251C523.223 171.54 523.641 171.695 524.071 171.682C524.283 171.683 524.492 171.643 524.688 171.562C524.883 171.482 525.061 171.363 525.21 171.213C525.359 171.063 525.476 170.884 525.555 170.688C525.634 170.492 525.674 170.282 525.67 170.071C525.64 169.64 525.445 169.238 525.125 168.949C524.804 168.659 524.385 168.505 523.953 168.518C523.743 168.518 523.535 168.56 523.34 168.641C523.146 168.723 522.97 168.842 522.822 168.992C522.675 169.142 522.558 169.319 522.48 169.515C522.401 169.71 522.363 169.919 522.366 170.13Z" fill="#263238"/>
<path d="M557.799 169.13C557.999 169.024 566.031 166.037 566.348 174.398C566.666 182.76 558.222 181.372 558.199 181.137C558.175 180.902 557.799 169.13 557.799 169.13Z" fill="#FFBF9D"/>
<path d="M560.68 177.868C560.68 177.868 560.833 177.962 561.08 178.068C561.432 178.204 561.822 178.204 562.173 178.068C562.699 177.702 563.118 177.204 563.387 176.623C563.655 176.042 563.764 175.4 563.702 174.763C563.702 174.045 563.537 173.337 563.22 172.693C563.128 172.431 562.973 172.196 562.768 172.009C562.562 171.822 562.314 171.69 562.044 171.623C561.876 171.59 561.702 171.615 561.55 171.694C561.398 171.773 561.278 171.902 561.209 172.058C561.103 172.293 561.209 172.458 561.115 172.482C561.021 172.505 560.939 172.352 560.986 171.999C561.029 171.792 561.136 171.603 561.291 171.458C561.519 171.281 561.803 171.193 562.091 171.211C562.437 171.267 562.763 171.41 563.038 171.626C563.314 171.842 563.53 172.124 563.667 172.446C564.061 173.168 564.267 173.976 564.267 174.798C564.267 176.48 563.491 178.091 562.291 178.491C562.069 178.565 561.834 178.589 561.602 178.561C561.37 178.532 561.147 178.452 560.95 178.326C560.68 178.068 560.598 177.879 560.68 177.868Z" fill="#FF9A6C"/>
<path d="M539.747 180.302C539.818 180.302 539.818 180.796 539.536 181.478C539.126 182.396 538.455 183.173 537.607 183.712C536.782 184.268 535.802 184.548 534.808 184.512C534.044 184.441 533.632 184.183 533.632 184.124C533.632 184.065 534.102 184.124 534.808 184.124C535.705 184.058 536.57 183.766 537.325 183.277C538.085 182.789 538.725 182.133 539.194 181.36C539.512 180.714 539.653 180.278 539.747 180.302Z" fill="#263238"/>
<path d="M581.848 510.958L584.341 539.182L593.185 561.008C593.33 561.389 593.392 561.795 593.368 562.202C593.344 562.608 593.234 563.004 593.045 563.365C592.856 563.725 592.592 564.041 592.271 564.292C591.951 564.542 591.581 564.722 591.185 564.819C590.718 564.958 590.224 564.988 589.743 564.907C589.262 564.825 588.806 564.634 588.41 564.348C583.365 560.679 565.172 547.179 564.972 545.426C564.714 543.145 560.068 515.356 560.068 515.356L581.848 510.958Z" fill="#455A64"/>
<path d="M591.256 564.854L564.537 542.24L564.808 544.333C564.984 545.509 565.008 546.097 565.807 546.814C572.908 553.246 580.368 559.269 588.151 564.854C588.63 565.078 589.152 565.194 589.68 565.194C590.208 565.194 590.73 565.078 591.209 564.854H591.256Z" fill="#263238"/>
<path d="M569.735 533.419C570.126 533.621 570.425 533.966 570.569 534.382C570.714 534.798 570.693 535.253 570.511 535.654C570.276 536.042 569.907 536.331 569.475 536.467C569.042 536.603 568.575 536.578 568.159 536.395C567.751 536.179 567.441 535.815 567.293 535.377C567.144 534.94 567.168 534.463 567.36 534.043C567.644 533.661 568.06 533.399 568.527 533.305C568.994 533.212 569.478 533.294 569.888 533.537" fill="white"/>
<path d="M582.953 553.212C583.13 553.282 583.635 551.73 585.305 550.766C586.366 550.248 587.508 549.918 588.68 549.789C588.68 549.719 588.292 549.543 587.587 549.519C586.656 549.511 585.74 549.759 584.941 550.236C584.161 550.688 583.531 551.359 583.13 552.165C582.871 552.777 582.871 553.2 582.953 553.212Z" fill="#263238"/>
<path d="M585.517 556.775C585.67 556.892 586.528 555.869 588.034 555.305C588.984 555.03 589.95 554.814 590.927 554.658C590.432 554.432 589.892 554.32 589.349 554.333C588.805 554.345 588.271 554.48 587.787 554.729C586.07 555.387 585.376 556.716 585.517 556.775Z" fill="#263238"/>
<path d="M578.426 548.778C579.603 547.843 580.85 546.998 582.154 546.25C583.564 545.673 585.015 545.197 586.493 544.827C584.891 544.586 583.254 544.892 581.848 545.697C579.425 546.861 578.32 548.707 578.426 548.778Z" fill="#263238"/>
<path d="M576.909 540.24C577.003 540.405 578.59 539.582 580.731 539.299C582.871 539.017 584.647 539.299 584.694 539.147C583.432 538.541 582.004 538.376 580.637 538.676C579.252 538.759 577.938 539.311 576.909 540.24Z" fill="#263238"/>
<path d="M575.968 531.961C577.205 531.34 578.554 530.972 579.935 530.879C581.317 530.786 582.702 530.97 584.012 531.42C584.012 531.35 583.694 531.032 582.953 530.726C581.978 530.344 580.929 530.183 579.884 530.256C578.841 530.315 577.826 530.617 576.92 531.138C576.215 531.538 575.897 531.902 575.968 531.961Z" fill="#263238"/>
<path d="M579.672 529.303C579.672 529.303 579.743 528.915 579.602 528.233C579.395 527.262 578.995 526.342 578.426 525.529C578.038 524.885 577.452 524.386 576.756 524.106C576.514 524.033 576.257 524.033 576.015 524.103C575.773 524.174 575.556 524.314 575.392 524.505C575.252 524.694 575.15 524.909 575.094 525.137C575.037 525.365 575.027 525.602 575.062 525.834C575.266 526.803 575.8 527.671 576.572 528.291C577.343 528.91 578.306 529.243 579.296 529.233C580.285 529.248 581.256 528.975 582.092 528.447C582.927 527.918 583.591 527.157 584 526.258C584.093 526.038 584.135 525.8 584.123 525.562C584.111 525.323 584.045 525.091 583.93 524.882C583.779 524.678 583.571 524.523 583.332 524.437C583.094 524.351 582.835 524.338 582.589 524.4C581.877 524.629 581.234 525.034 580.719 525.576C579.987 526.249 579.378 527.045 578.92 527.928C578.73 528.239 578.61 528.588 578.567 528.951C579.238 527.804 580.074 526.762 581.048 525.858C581.51 525.402 582.075 525.063 582.695 524.87C582.828 524.832 582.97 524.837 583.1 524.883C583.231 524.93 583.344 525.015 583.424 525.129C583.488 525.271 583.522 525.425 583.522 525.581C583.522 525.738 583.488 525.892 583.424 526.034C583.05 526.797 582.469 527.44 581.747 527.889C581.026 528.338 580.193 528.575 579.343 528.574C578.504 528.578 577.689 528.299 577.028 527.783C576.366 527.266 575.898 526.543 575.698 525.728C575.64 525.406 575.708 525.074 575.886 524.799C575.974 524.69 576.093 524.611 576.227 524.571C576.362 524.531 576.505 524.533 576.638 524.576C577.228 524.813 577.732 525.223 578.085 525.752C578.829 526.828 579.367 528.032 579.672 529.303Z" fill="#263238"/>
<path d="M510.653 512.416L511.758 536.348C511.758 536.348 486.251 545.45 486.004 549.895L535.455 549.531L535.349 512.169L510.653 512.416Z" fill="#455A64"/>
<path d="M527.035 534.219C527.5 534.334 527.905 534.621 528.167 535.023C528.428 535.425 528.528 535.911 528.446 536.383C528.304 536.846 527.993 537.24 527.575 537.486C527.157 537.732 526.662 537.812 526.188 537.712C525.697 537.591 525.271 537.288 524.995 536.864C524.72 536.441 524.617 535.928 524.706 535.43C524.901 534.954 525.268 534.568 525.734 534.35C526.201 534.132 526.732 534.098 527.223 534.254" fill="#E0E0E0"/>
<path d="M535.455 549.531L535.29 545.767L487.933 547.52C487.933 547.52 485.745 548.437 486.004 549.872L535.455 549.531Z" fill="#263238"/>
<path d="M510.959 536.136C510.959 536.359 512.135 536.454 513.311 537.171C514.487 537.888 515.145 538.841 515.369 538.747C515.592 538.653 515.216 537.347 513.757 536.501C512.299 535.654 510.9 535.913 510.959 536.136Z" fill="#263238"/>
<path d="M505.784 538.17C505.784 538.394 506.784 538.77 507.607 539.723C508.43 540.675 508.689 541.698 508.924 541.687C509.159 541.675 509.312 540.381 508.254 539.217C507.195 538.053 505.796 537.959 505.784 538.17Z" fill="#263238"/>
<path d="M502.891 544.027C503.115 544.027 503.432 542.945 502.809 541.675C502.186 540.405 501.045 539.958 500.939 540.146C500.833 540.334 501.551 540.993 502.045 542.016C502.539 543.039 502.656 544.015 502.891 544.027Z" fill="#263238"/>
<path d="M511.347 530.632C511.453 530.844 512.523 530.527 513.922 530.632C515.322 530.738 516.357 531.103 516.474 530.915C516.592 530.726 515.58 529.915 513.969 529.844C512.358 529.774 511.288 530.456 511.347 530.632Z" fill="#263238"/>
<path d="M502.045 340.544C502.045 341.92 507.783 533.231 507.783 533.231H538.359L544.557 369.579C544.557 369.579 551.789 455.145 551.789 456.991C551.789 458.838 558.163 534.149 558.163 534.149L586.505 531.973L584.635 359.736L581.178 334.476L502.045 340.544Z" fill="#263238"/>
<path d="M547.744 363.523C547.357 363.742 546.941 363.908 546.509 364.017C545.698 364.299 544.51 364.687 543.052 365.193L542.781 365.275V365.004C542.617 362.711 542.417 359.63 542.24 356.255C542.04 352.598 541.899 349.293 541.829 346.847C541.829 345.671 541.77 344.671 541.77 344.001C541.735 343.651 541.759 343.297 541.84 342.954C541.939 343.291 541.994 343.639 542.005 343.989C542.087 344.66 542.17 345.636 542.252 346.823C542.44 349.175 542.652 352.527 542.84 356.231C543.028 359.607 543.158 362.688 543.228 364.993L542.934 364.805C544.416 364.393 545.615 364.064 546.462 363.852C546.878 363.701 547.307 363.59 547.744 363.523Z" fill="#455A64"/>
<path d="M545.392 343.637C545.392 343.637 545.486 343.484 545.804 343.378C546.251 343.26 546.725 343.302 547.144 343.496C547.46 343.611 547.731 343.826 547.915 344.108C548.099 344.39 548.188 344.723 548.167 345.06C548.128 345.485 547.95 345.885 547.661 346.199C547.372 346.514 546.988 346.725 546.568 346.8C546.14 346.864 545.704 346.809 545.305 346.641C544.907 346.473 544.563 346.198 544.31 345.848C544.133 345.576 544.039 345.26 544.039 344.936C544.039 344.613 544.133 344.296 544.31 344.025C544.553 343.66 544.908 343.384 545.321 343.237C545.627 343.131 545.804 343.155 545.815 343.178C545.827 343.202 545.122 343.401 544.698 344.201C544.574 344.414 544.514 344.659 544.527 344.905C544.539 345.152 544.623 345.389 544.769 345.589C544.959 345.84 545.213 346.036 545.505 346.156C545.796 346.276 546.115 346.316 546.427 346.271C546.718 346.215 546.986 346.073 547.195 345.863C547.405 345.654 547.547 345.386 547.603 345.095C547.626 344.854 547.574 344.611 547.454 344.401C547.334 344.19 547.152 344.022 546.933 343.919C546.462 343.664 545.922 343.565 545.392 343.637Z" fill="#455A64"/>
<path d="M559.433 345.624C559.269 345.624 559.034 344.801 558.916 343.766C558.798 342.731 558.834 341.873 558.998 341.861C559.163 341.849 559.398 342.672 559.516 343.707C559.633 344.742 559.598 345.624 559.433 345.624Z" fill="#455A64"/>
<path d="M561.55 345.401C561.386 345.401 561.244 344.519 561.244 343.425C561.244 342.331 561.362 341.449 561.538 341.449C561.715 341.449 561.844 342.331 561.844 343.425C561.844 344.519 561.727 345.401 561.55 345.401Z" fill="#455A64"/>
<path d="M524.706 346.718C524.541 346.718 524.283 345.742 524.13 344.507C523.977 343.272 523.989 342.237 524.13 342.225C524.271 342.214 524.553 343.201 524.706 344.448C524.859 345.695 524.871 346.706 524.706 346.718Z" fill="#455A64"/>
<path d="M527.282 346.906C526.738 346.247 526.469 345.405 526.529 344.554C526.402 343.731 526.591 342.891 527.058 342.202C527.234 342.202 527.058 343.284 527.14 344.554C527.223 345.824 527.446 346.859 527.282 346.906Z" fill="#455A64"/>
<path d="M517.615 344.354C517.627 344.636 517.592 344.919 517.509 345.189C517.361 345.952 517.157 346.703 516.897 347.435C516.025 349.904 514.745 352.21 513.111 354.256C511.413 356.366 509.397 358.198 507.137 359.689C506.441 360.148 505.719 360.564 504.973 360.936C504.701 361.088 504.413 361.211 504.114 361.3C504.114 361.23 505.22 360.618 506.901 359.407C509.065 357.871 511.004 356.043 512.664 353.974C514.266 351.956 515.569 349.719 516.533 347.329C517.25 345.506 517.521 344.33 517.615 344.354Z" fill="#455A64"/>
<path d="M583.706 357.243C583.404 357.332 583.092 357.38 582.777 357.384C581.924 357.451 581.066 357.451 580.213 357.384C577.422 357.115 574.735 356.18 572.381 354.656C570.151 353.195 568.353 351.165 567.171 348.776C566.828 348.081 566.56 347.352 566.372 346.6C566.277 346.336 566.233 346.057 566.242 345.777C566.336 345.777 566.595 346.953 567.524 348.635C568.765 350.909 570.546 352.843 572.71 354.268C574.991 355.739 577.569 356.687 580.26 357.043C582.365 357.278 583.694 357.149 583.706 357.243Z" fill="#455A64"/>
<path d="M533.902 454.122C533.902 454.251 528.799 453.146 522.589 451.676C516.38 450.206 511.37 448.889 511.417 448.759C511.464 448.63 516.521 449.724 522.73 451.205C528.94 452.687 533.938 453.992 533.902 454.122Z" fill="#455A64"/>
<path d="M583.153 447.16C583.224 447.277 578.814 449.571 573.31 452.299C567.807 455.027 563.267 457.132 563.197 457.003C563.126 456.874 567.536 454.58 573.04 451.864C578.543 449.147 583.083 447.042 583.153 447.16Z" fill="#455A64"/>
<path d="M487.204 275.758L491.378 280.991V271.995H504.55C504.55 271.995 506.008 292.586 505.726 296.973C505.413 299.259 504.873 301.509 504.114 303.688C503.721 304.956 503.007 306.101 502.043 307.014C501.078 307.926 499.894 308.574 498.606 308.895C497.317 309.217 495.968 309.201 494.688 308.849C493.407 308.497 492.239 307.821 491.296 306.887C489.822 305.453 488.447 303.92 487.18 302.3C481.3 294.774 471.61 276.428 471.61 276.428L481.77 270.36L487.204 275.758Z" fill="#FFBF9D"/>
<path d="M486.368 274.793C486.866 275.629 487.441 276.417 488.085 277.145C489.261 278.521 490.743 280.415 492.495 282.461C494.248 284.507 495.918 286.318 497.199 287.553C497.849 288.266 498.602 288.876 499.434 289.364C498.837 288.618 498.193 287.911 497.505 287.247C496.329 285.954 494.706 284.107 492.954 282.061C489.485 277.898 486.521 274.652 486.368 274.793Z" fill="#FF9A6C"/>
<path d="M517.238 212.501L531.127 207.044L556.705 205.598L568.724 210.172L552.248 219.322L538.042 218.804L517.238 212.501Z" fill="#FFBF9D"/>
<path d="M500.857 343.154C502.115 343.366 585.917 346.929 585.917 346.929L583.024 271.536L582.777 256.742L578.073 211.925C578.073 211.925 565.537 207.609 559.151 205.551C559.151 205.551 552.424 212.607 539.63 212.371C527.129 212.195 524.518 209.373 524.518 209.373L507.043 216.076C507.043 216.076 494.612 220.533 492.472 226.037C490.332 231.54 486.592 261.963 486.592 261.963H504.714L504.232 316.024L500.857 343.154Z" fill="#455A64"/>
<g opacity="0.2">
<path d="M553.553 242.583L556.152 261.587L568.724 267.197L578.014 259.282V241.642L553.553 242.583Z" fill="black"/>
</g>
<path d="M577.685 248.016C577.685 248.169 572.463 248.298 566.019 248.298C559.574 248.298 554.341 248.169 554.341 248.016C558.226 247.721 562.124 247.623 566.019 247.722C569.91 247.623 573.804 247.721 577.685 248.016Z" fill="#263238"/>
<path d="M495.212 233.904C495.272 234.069 495.319 234.238 495.353 234.41C495.436 234.786 495.541 235.256 495.682 235.856C496.134 237.671 496.692 239.458 497.352 241.207C498.187 243.453 499.363 246.099 500.81 249.063C502.256 252.026 503.409 255.566 504.691 259.329C504.691 263.845 504.691 268.737 504.597 273.947C504.479 285.472 504.361 295.903 504.291 303.511C504.22 307.251 504.173 310.297 504.126 312.473C504.126 313.484 504.103 314.295 504.056 314.907C504.061 315.19 504.041 315.474 503.997 315.754C503.976 315.468 503.976 315.181 503.997 314.895C503.997 314.299 503.997 313.488 503.997 312.461C503.997 310.297 503.997 307.239 503.997 303.5C503.997 295.891 504.091 285.46 504.15 273.947C504.15 268.784 504.244 263.845 504.279 259.329V259.411C503.021 255.648 501.809 252.156 500.492 249.157C499.235 246.575 498.112 243.929 497.129 241.23C496.493 239.464 495.979 237.657 495.588 235.821C495.471 235.174 495.377 234.645 495.33 234.339C495.277 234.198 495.238 234.052 495.212 233.904Z" fill="#263238"/>
<path d="M584.059 225.108C584.1 225.644 584.1 226.182 584.059 226.719C584.059 227.895 583.965 229.329 583.894 231.093C583.741 234.88 583.541 239.937 583.318 245.523C583.094 251.109 582.836 256.177 582.671 259.964C582.565 261.728 582.483 263.198 582.412 264.339C582.41 264.876 582.355 265.412 582.248 265.938C582.205 265.402 582.205 264.863 582.248 264.327C582.248 263.151 582.248 261.716 582.33 259.952C582.424 256.248 582.589 251.144 582.824 245.511C583.059 239.878 583.318 234.763 583.553 231.082C583.671 229.235 583.788 227.742 583.894 226.707C583.902 226.17 583.957 225.635 584.059 225.108Z" fill="#263238"/>
<g opacity="0.3">
<path d="M495.259 236.668C494.94 244.943 497.898 253.01 503.491 259.117C501.786 251.344 497.529 244.112 495.259 236.668Z" fill="black"/>
</g>
<g opacity="0.3">
<path d="M532.068 311.261C536.008 310.736 539.601 308.736 542.123 305.664C544.775 302.701 547.047 299.418 548.885 295.891C551.256 291.094 552.601 285.855 552.836 280.509C547.956 293.598 540.806 303.947 532.068 311.261Z" fill="black"/>
</g>
<path d="M554.388 274.805C554.38 274.968 554.357 275.129 554.318 275.287C554.235 275.664 554.13 276.111 554.012 276.652C553.894 277.193 553.706 277.957 553.447 278.78C553.189 279.603 552.942 280.544 552.565 281.567C551.742 283.975 550.776 286.331 549.673 288.623C546.974 294.236 543.511 299.449 539.383 304.111C537.697 306.014 535.89 307.805 533.973 309.474C533.185 310.215 532.397 310.803 531.727 311.344C531.056 311.885 530.468 312.32 529.963 312.661L528.787 313.449C528.516 313.613 528.375 313.707 528.363 313.684C528.467 313.56 528.585 313.449 528.716 313.355L529.81 312.484C530.292 312.132 530.868 311.673 531.515 311.108C532.162 310.544 532.926 309.932 533.702 309.192C535.56 307.486 537.323 305.68 538.983 303.782C540.994 301.439 542.867 298.981 544.592 296.42C546.279 293.84 547.818 291.166 549.202 288.412C550.315 286.148 551.308 283.829 552.177 281.461C552.577 280.462 552.859 279.521 553.13 278.71C553.4 277.898 553.624 277.193 553.789 276.616C553.953 276.04 554.071 275.652 554.188 275.287C554.306 274.923 554.365 274.794 554.388 274.805Z" fill="#263238"/>
<path d="M551.966 251.215C551.948 251.475 551.912 251.735 551.86 251.991C551.766 252.544 551.636 253.273 551.484 254.178C551.331 255.084 551.095 256.283 550.754 257.612C550.413 258.941 550.108 260.482 549.578 262.128C549.343 262.951 549.085 263.821 548.814 264.727C548.544 265.632 548.191 266.55 547.861 267.502C547.238 269.443 546.391 271.442 545.509 273.559C541.647 282.695 536.455 291.211 530.104 298.831C528.61 300.548 527.211 302.218 525.776 303.653C525.071 304.382 524.412 305.111 523.73 305.758C523.048 306.404 522.401 307.039 521.766 307.627C520.59 308.803 519.32 309.827 518.238 310.72C517.156 311.614 516.286 312.355 515.51 312.931L513.734 314.272C513.54 314.442 513.327 314.588 513.099 314.707C513.27 314.517 513.459 314.344 513.663 314.19L515.369 312.767C516.121 312.167 517.039 311.426 518.038 310.497C519.038 309.568 520.249 308.58 521.46 307.345L523.389 305.464C524.059 304.805 524.706 304.076 525.4 303.347C526.823 301.9 528.199 300.23 529.681 298.502C535.977 290.895 541.157 282.428 545.063 273.359C545.933 271.254 546.78 269.278 547.415 267.361C547.756 266.397 548.108 265.491 548.391 264.598C548.673 263.704 548.932 262.845 549.19 262.022C549.731 260.388 550.072 258.87 550.437 257.542C550.801 256.213 551.06 255.072 551.248 254.131C551.437 253.19 551.613 252.52 551.731 251.967C551.782 251.709 551.86 251.456 551.966 251.215Z" fill="#263238"/>
<path d="M485.745 227.777L518.015 276.84C518.169 277.071 518.253 277.343 518.257 277.621C518.26 277.899 518.184 278.173 518.036 278.409C517.888 278.645 517.676 278.833 517.424 278.951C517.172 279.069 516.891 279.112 516.615 279.074L479.454 274.37C479.258 274.343 479.07 274.277 478.9 274.176C478.731 274.075 478.583 273.941 478.466 273.782L442.974 225.307C442.798 225.083 442.692 224.812 442.668 224.528C442.645 224.244 442.705 223.96 442.841 223.71C442.977 223.459 443.184 223.255 443.436 223.121C443.687 222.987 443.972 222.929 444.256 222.955L482.488 225.778C483.148 225.838 483.785 226.049 484.351 226.396C484.916 226.743 485.393 227.215 485.745 227.777Z" fill="#E0E0E0"/>
<path d="M485.745 227.777C485.665 227.617 485.566 227.467 485.451 227.33C485.124 226.924 484.725 226.582 484.275 226.319C483.51 225.919 482.658 225.713 481.794 225.719L478.36 225.437L456.322 223.708L449.019 223.144L445.138 222.85C444.797 222.85 444.503 222.85 444.115 222.85C443.718 222.863 443.338 223.017 443.045 223.285C442.746 223.557 442.554 223.926 442.502 224.327C442.451 224.727 442.543 225.133 442.762 225.472L453.088 239.643C460.379 249.604 468.376 260.552 476.784 272.053C477.325 272.771 477.807 273.465 478.395 274.217C478.576 274.417 478.802 274.57 479.054 274.664C479.285 274.745 479.526 274.793 479.771 274.805L481.088 274.97L486.286 275.628L496.447 276.899L515.663 279.251C516.062 279.251 516.392 279.356 516.839 279.38C517.068 279.382 517.295 279.338 517.507 279.251C517.719 279.164 517.911 279.036 518.073 278.874C518.381 278.558 518.562 278.139 518.579 277.698C518.561 277.268 518.405 276.856 518.132 276.522L515.639 272.712L510.935 265.656L502.515 252.92C497.364 245.17 493.201 238.878 490.296 234.516L486.945 229.518C486.568 228.977 486.274 228.541 486.051 228.236C485.956 228.083 485.85 227.937 485.733 227.801C485.814 227.963 485.904 228.12 486.004 228.271L486.839 229.588C487.592 230.764 488.685 232.469 490.085 234.645L502.15 253.167L510.512 265.938L515.216 273.053L517.662 276.781C517.873 277.028 517.997 277.338 518.015 277.663C518.003 277.972 517.877 278.265 517.662 278.486C517.443 278.703 517.147 278.826 516.839 278.827C516.521 278.827 516.086 278.733 515.721 278.698L496.47 276.24L486.31 274.958L481.112 274.3L479.806 274.135C479.611 274.119 479.418 274.083 479.23 274.029C479.065 273.965 478.916 273.865 478.795 273.735C478.278 273.03 477.76 272.336 477.243 271.618C468.823 260.141 460.779 249.204 453.511 239.243C449.854 234.28 446.396 229.553 443.15 225.131C443.029 224.956 442.958 224.752 442.943 224.54C442.929 224.328 442.972 224.116 443.069 223.927C443.165 223.737 443.311 223.577 443.491 223.464C443.671 223.351 443.879 223.289 444.091 223.285C444.362 223.285 444.738 223.285 445.056 223.344L448.936 223.626L456.251 224.143L478.36 225.672L481.817 225.907C482.66 225.879 483.497 226.061 484.252 226.436C484.84 226.771 485.35 227.228 485.745 227.777Z" fill="#263238"/>
<path d="M442.974 225.343C443.228 225.408 443.488 225.448 443.75 225.46L446.008 225.696L454.405 226.436L482.958 228.788L482.735 228.659C484.522 231.317 486.368 234.069 488.215 236.891C495.753 248.475 502.327 259.129 507.301 266.703C509.771 270.501 511.829 273.535 513.264 275.629L514.934 277.981C515.114 278.267 515.323 278.535 515.557 278.78C515.402 278.48 515.229 278.189 515.039 277.91L513.464 275.452L507.666 266.432C502.797 258.8 496.27 248.122 488.732 236.527C486.886 233.669 485.028 230.917 483.229 228.295L483.146 228.177H483.064L454.499 226.06L446.09 225.496L443.821 225.366C443.54 225.337 443.256 225.33 442.974 225.343Z" fill="#263238"/>
<path d="M465.095 232.834C465.117 232.736 465.158 232.644 465.217 232.563C465.275 232.482 465.349 232.413 465.435 232.361C465.521 232.31 465.616 232.276 465.715 232.262C465.814 232.248 465.915 232.255 466.012 232.281C466.391 232.367 466.737 232.559 467.012 232.834C467.186 232.993 467.299 233.209 467.332 233.443C467.364 233.677 467.313 233.915 467.188 234.116C466.823 234.574 466.012 234.398 465.612 234.022C465.432 233.884 465.289 233.703 465.199 233.495C465.108 233.287 465.072 233.06 465.095 232.834Z" fill="white"/>
<path d="M482.452 260.329C482.452 260.329 483.911 256.801 480.195 256.377C475.701 256.144 471.199 256.144 466.706 256.377C466.706 256.377 461.355 256.942 462.484 260.776C462.484 260.776 459.332 263.598 461.026 266.656C462.719 269.713 463.378 268.796 463.378 268.796C463.378 268.796 462.931 272.524 465.73 273.077C465.73 273.077 468.787 276.687 471.61 276.463C474.432 276.24 486.369 270.489 487.156 269.407C487.944 268.326 489.073 267.643 488.403 266.385C488.403 266.385 489.861 263.081 486.71 262.575C486.733 262.516 486.51 259.776 482.452 260.329Z" fill="#FFBF9D"/>
<path d="M465.494 261.587C466.322 261.759 467.168 261.823 468.011 261.775C469.563 261.775 471.704 261.775 474.068 261.775C476.104 261.835 478.143 261.717 480.159 261.422C481.759 261.046 482.394 260.105 482.323 260.082C481.632 260.52 480.867 260.826 480.065 260.987C478.595 261.234 476.42 261.081 474.056 261.164C471.692 261.246 469.552 261.27 467.999 261.34C467.158 261.322 466.317 261.405 465.494 261.587Z" fill="#FF9A6C"/>
<path d="M468.152 267.232C468.401 267.378 468.677 267.47 468.964 267.502C469.737 267.66 470.528 267.711 471.316 267.655C472.464 267.568 473.599 267.359 474.703 267.032C475.949 266.691 477.278 266.209 478.677 265.785C479.978 265.355 481.323 265.075 482.688 264.95C483.867 265.06 485.052 264.823 486.098 264.268C486.507 263.992 486.796 263.572 486.909 263.092C486.985 262.734 486.935 262.36 486.768 262.034C486.474 261.505 486.074 261.47 486.086 261.493C486.098 261.517 486.368 261.658 486.545 262.14C486.658 262.467 486.65 262.823 486.522 263.144C486.395 263.466 486.157 263.731 485.851 263.892C484.847 264.334 483.742 264.501 482.652 264.374C481.24 264.462 479.845 264.731 478.501 265.174L474.55 266.479C473.482 266.811 472.388 267.055 471.28 267.208C470.239 267.279 469.194 267.287 468.152 267.232Z" fill="#FF9A6C"/>
<path d="M472.151 271.995C473.007 271.946 473.853 271.783 474.667 271.512C476.196 271.124 478.289 270.525 480.547 269.784C482.805 269.043 484.875 268.278 486.333 267.679C487.162 267.418 487.952 267.051 488.685 266.585C488.615 266.42 484.946 267.761 480.453 269.184C475.961 270.607 472.104 271.83 472.151 271.995Z" fill="#FF9A6C"/>
<path d="M471.198 276.416C471.901 276.478 472.608 276.398 473.28 276.181C474.92 275.783 476.516 275.22 478.042 274.5C479.83 273.688 481.394 272.853 482.523 272.253C483.168 271.981 483.77 271.616 484.31 271.172C482.058 271.899 479.874 272.824 477.784 273.935C474.267 275.629 471.175 276.24 471.198 276.416Z" fill="#FF9A6C"/>
<path d="M589.998 242.795C589.998 242.795 582.401 273.229 572.91 284.472C563.714 295.362 549.308 290.352 544.322 276.24C539.335 262.128 530.445 230.011 530.445 230.011L541.358 221.662L560.174 258.224L568.677 233.304L589.998 242.795Z" fill="#FFBF9D"/>
<path d="M530.951 230.882L522.942 219.275C521.776 219.023 520.635 218.669 519.532 218.216C518.626 217.687 517.732 213.077 517.756 212.183C517.779 211.29 516.204 209.185 516.839 208.585C517.474 207.985 519.614 207.95 519.496 207.091C519.496 206.903 517.909 204.974 519.155 203.563C519.843 203.109 520.608 202.786 521.413 202.611L521.284 198.177C521.284 198.177 523.636 192.956 526.117 194.849C526.117 194.849 535.325 201.905 536.254 203.081C537.183 204.257 540.735 218.945 541.358 221.709" fill="#FFBF9D"/>
<path d="M541.358 221.685C541.346 221.423 541.306 221.163 541.241 220.909C541.111 220.345 540.958 219.616 540.758 218.698C540.335 216.77 539.688 213.994 538.818 210.572C538.371 208.855 537.889 207.044 537.266 204.986C537.113 204.492 536.948 203.987 536.737 203.469C536.494 202.942 536.121 202.485 535.655 202.14C534.808 201.399 533.926 200.67 533.02 199.929C531.198 198.459 529.257 196.931 527.246 195.366C526.739 194.914 526.168 194.538 525.553 194.249C525.193 194.163 524.818 194.163 524.459 194.249C524.099 194.335 523.765 194.504 523.483 194.743C522.433 195.657 521.594 196.789 521.025 198.06V198.13C521.025 198.565 521.025 199.024 521.025 199.482C521.025 200.517 521.025 201.552 521.119 202.564L521.331 202.281C520.776 202.415 520.233 202.596 519.708 202.822C519.415 202.944 519.148 203.119 518.92 203.34C518.717 203.577 518.565 203.853 518.473 204.151C518.323 204.739 518.373 205.359 518.614 205.915C518.712 206.181 518.834 206.437 518.979 206.68L519.179 207.021V207.103C519.185 207.13 519.185 207.158 519.179 207.185C519.179 207.279 518.944 207.421 518.72 207.503C518.497 207.585 518.25 207.667 518.003 207.75C517.748 207.818 517.496 207.9 517.25 207.997C516.942 208.086 516.672 208.276 516.486 208.538C516.363 208.839 516.363 209.177 516.486 209.478C516.557 209.732 516.647 209.98 516.756 210.219C516.956 210.69 517.18 211.137 517.344 211.572C517.428 211.77 517.475 211.981 517.485 212.195C517.49 212.447 517.514 212.699 517.556 212.948C517.627 213.43 517.709 213.9 517.815 214.371C517.998 215.277 518.245 216.169 518.556 217.04C518.705 217.495 518.945 217.916 519.261 218.275C519.645 218.523 520.066 218.71 520.508 218.828C521.319 219.075 522.119 219.275 522.86 219.451L522.73 219.369L528.61 227.789L530.257 230.07C530.439 230.345 530.644 230.605 530.868 230.846C530.718 230.554 530.549 230.271 530.363 230L528.81 227.648C527.411 225.566 525.447 222.661 523.036 219.11V219.039H523.048C522.295 218.851 521.507 218.64 520.696 218.393C520.319 218.285 519.959 218.127 519.626 217.922C519.373 217.612 519.181 217.257 519.061 216.876C518.761 216.024 518.525 215.151 518.356 214.265C518.262 213.806 518.179 213.348 518.109 212.877C518.109 212.654 518.109 212.407 518.109 212.195C518.098 211.921 518.043 211.651 517.944 211.395C517.768 210.913 517.544 210.466 517.356 210.008C517.253 209.792 517.171 209.568 517.109 209.337C517.045 209.163 517.045 208.971 517.109 208.796C517.244 208.656 517.415 208.554 517.603 208.502C517.837 208.41 518.077 208.331 518.32 208.267C518.567 208.185 518.826 208.114 519.085 208.008C519.408 207.908 519.679 207.684 519.837 207.385C519.88 207.289 519.9 207.185 519.896 207.079C519.893 207.005 519.873 206.933 519.837 206.868V206.774L519.638 206.433C519.511 206.21 519.401 205.978 519.308 205.739C519.119 205.297 519.078 204.806 519.191 204.339C519.253 204.113 519.365 203.904 519.52 203.728C519.697 203.572 519.9 203.449 520.12 203.363C520.615 203.151 521.126 202.977 521.648 202.846L521.86 202.787V202.564C521.86 201.552 521.801 200.529 521.766 199.494C521.766 199.036 521.766 198.565 521.766 198.142V198.271C522.289 197.084 523.063 196.025 524.036 195.167C524.244 194.974 524.497 194.835 524.772 194.764C525.047 194.692 525.335 194.689 525.612 194.755C526.159 195.024 526.67 195.364 527.129 195.766C529.151 197.33 531.092 198.847 532.915 200.306C533.832 201.035 534.714 201.752 535.549 202.47C535.971 202.769 536.308 203.175 536.525 203.646C536.725 204.128 536.889 204.633 537.054 205.116C537.677 207.091 538.23 208.961 538.653 210.654C539.535 214.03 540.265 216.77 540.77 218.734C541.017 219.639 541.205 220.368 541.346 220.921C541.324 221.176 541.328 221.432 541.358 221.685Z" fill="#FF9A6C"/>
<path d="M521.413 202.611C521.413 202.705 522.342 202.611 523.765 202.775C524.617 202.907 525.458 203.099 526.282 203.352C527.362 203.505 528.459 203.505 529.539 203.352C530.467 203.221 531.411 203.304 532.302 203.593C533.192 203.882 534.005 204.371 534.679 205.021C535.2 205.6 535.617 206.265 535.913 206.985C535.919 206.566 535.838 206.151 535.676 205.765C535.514 205.378 535.275 205.029 534.973 204.739C534.361 204.066 533.605 203.54 532.762 203.199C531.726 202.797 530.607 202.655 529.504 202.787C528.469 202.916 527.422 202.916 526.388 202.787C525.538 202.55 524.668 202.397 523.789 202.328C522.986 202.265 522.179 202.36 521.413 202.611Z" fill="#FF9A6C"/>
<path d="M524.671 202.364C524.8 202.434 525.177 201.893 525.13 201.129C525.082 200.365 524.647 199.882 524.53 199.953C524.412 200.023 524.53 200.541 524.53 201.129C524.53 201.717 524.518 202.305 524.671 202.364Z" fill="#FF9A6C"/>
<path d="M519.214 207.256C521.541 207.478 523.889 207.295 526.153 206.715C526.975 206.445 527.841 206.333 528.705 206.386C529.373 206.533 529.964 206.923 530.363 207.479C530.709 208.033 531.016 208.611 531.28 209.208C531.321 208.495 531.117 207.79 530.704 207.209C530.281 206.524 529.604 206.034 528.822 205.845C527.888 205.735 526.942 205.828 526.047 206.115C522.319 206.962 519.214 207.091 519.214 207.256Z" fill="#FF9A6C"/>
<path d="M517.991 211.442C518.552 211.573 519.135 211.573 519.696 211.442C520.743 211.325 522.154 210.96 523.683 210.655C524.389 210.497 525.112 210.426 525.835 210.443C526.397 210.453 526.94 210.652 527.376 211.007C527.765 211.367 528.033 211.84 528.14 212.36C528.14 212.36 528.246 212.207 528.234 211.889C528.186 211.442 527.982 211.026 527.658 210.713C527.181 210.244 526.55 209.963 525.882 209.925C525.094 209.871 524.302 209.93 523.53 210.102C521.954 210.408 520.59 210.831 519.579 211.043C519.037 211.122 518.505 211.256 517.991 211.442Z" fill="#FF9A6C"/>
<path d="M520.696 214.759C520.602 214.829 521.39 215.652 522.825 215.652L522.542 215.406C522.542 215.652 522.542 215.899 522.625 216.146C522.663 217.155 522.886 218.147 523.283 219.075C523.44 218.082 523.408 217.069 523.189 216.088L523.083 215.347V215.088H522.836C522.113 215.058 521.395 214.948 520.696 214.759Z" fill="#FF9A6C"/>
<path d="M577.979 211.972C577.979 211.972 593.537 215.735 593.502 236.374C593.467 257.012 588.798 267.197 588.798 267.197L560.115 251.544L566.56 235.515L577.979 211.972Z" fill="#455A64"/>
<path d="M588.798 267.197C588.592 267.136 588.394 267.049 588.21 266.938L586.54 266.091L580.425 262.869L559.974 251.85L559.739 251.732L559.833 251.485L561.374 247.463C563.208 242.7 564.902 238.161 566.548 234.033C567.348 231.975 568.101 230.011 568.818 228.153C569.444 226.427 570.203 224.752 571.088 223.144C572.269 220.737 574.051 218.675 576.262 217.158C576.883 216.769 577.568 216.494 578.285 216.346C578.467 216.307 578.651 216.284 578.837 216.276H579.037C578.097 216.472 577.2 216.838 576.391 217.358C574.27 218.91 572.575 220.973 571.464 223.355C570.619 224.958 569.892 226.621 569.288 228.33C568.594 230.176 567.854 232.14 567.066 234.21L561.938 247.663L560.398 251.685L560.257 251.309L580.672 262.516L586.693 265.903L588.304 266.844C588.481 266.943 588.647 267.061 588.798 267.197Z" fill="#263238"/>
</svg>
